<?xml version="1.0" encoding="utf-8"?>
<!-- Generator: Adobe Illustrator 21.1.0, SVG Export Plug-In . SVG Version: 6.00 Build 0)  -->
<svg version="1.1" id="Camada_1" xmlns="http://www.w3.org/2000/svg" xmlns:xlink="http://www.w3.org/1999/xlink" x="0px" y="0px"
	 viewBox="0 0 370.5 247.8" style="enable-background:new 0 0 370.5 247.8;" xml:space="preserve">
<style type="text/css">
	.st0{fill:#FFFFFF;}
</style>
<g>
	<g>
		<path class="st0" d="M125.6,211.9h-18.4v6.5h17.2v8.6h-17.1v16.5H96.4V203h29.2V211.9z"/>
		<path class="st0" d="M161,237.1c-1.5,1.2-3.6,3.3-6.5,6.2h-21.1c-1.5-1.4-3.8-3.5-6.9-6.2v-28.3c4.6-4.1,7.3-6.1,7.9-6.1h18.7
			c0.9,0,2.2,0.8,3.7,2.5c1.9,2,3.2,3.2,4.1,3.7V237.1z M150.2,234.3v-22.8h-12.8v22.8H150.2z"/>
		<path class="st0" d="M198.7,221.3c-1.7,1.5-2.8,2.9-3.6,3.9c0.4,0.6,1.6,1.9,3.6,3.9v14.3h-10.8v-13.2h-11.9v13.2h-10.8V203H192
			c0.4,0,2.6,1.8,6.7,5.3V221.3z M187.9,221.7v-9.9h-11.9v9.9H187.9z"/>
		<path class="st0" d="M234.5,216.9h-9.9v-5.1h-11.7v22.7h21.6v8.9h-25.5c-1.5-1.4-3.8-3.4-6.9-6.1v-28.3l4.5-3.8
			c1.8-1.5,2.9-2.3,3.4-2.3h24.6V216.9z"/>
		<rect x="215.9" y="238.7" class="st0" width="9.1" height="9.1"/>
		<path class="st0" d="M272.1,243.5h-10.8v-11.2h-11.9v11.2h-10.9v-34c4.4-4.4,7-6.5,7.9-6.5h18.3c0.7,0,3.1,2.2,7.4,6.5V243.5z
			 M261.3,223.7v-11.9h-11.9v11.9H261.3z"/>
	</g>
	<path class="st0" d="M351.8,61l18.7-29.9h-60h-42.8V0H102.8v31.1H60H0L18.7,61h84.1v7.5H23.4l12.3,19.7h67v7.5H40.5l18.9,30.2H60
		h42.8v6l82.5,59.5l82.5-59.5v-6h42.8h0.7l18.9-30.2h-62.3v-7.5h67l12.3-19.7h-79.4V61H351.8z M251.2,124.5l-65.9,47.6l-65.9-47.6
		V19.2h131.8V124.5z"/>
	<path class="st0" d="M235.8,71.5h-3.6c-0.5,0-1,0.1-1.5,0.3v-1.5c0-2.6-2.1-4.7-4.7-4.7h-3.6c-0.5,0-0.9,0.1-1.3,0.2v-0.3
		c0-2.6-2.1-4.7-4.7-4.7h-3.6c-2.6,0-4.7,2.1-4.7,4.7v12.7h-45.6V65.5c0-2.6-2.1-4.7-4.7-4.7h-3.6c-2.6,0-4.7,2.1-4.7,4.7v0.3
		c-0.4-0.1-0.8-0.2-1.3-0.2h-3.6c-2.6,0-4.7,2.1-4.7,4.7v1.5c-0.5-0.2-1-0.3-1.5-0.3h-3.6c-2.6,0-4.7,2.1-4.7,4.7v14.9
		c0,2.6,2.1,4.7,4.7,4.7h3.6c0.5,0,1-0.1,1.5-0.3v1.5c0,2.6,2.1,4.7,4.7,4.7h3.6c0.5,0,0.9-0.1,1.3-0.2v0.3c0,2.6,2.1,4.7,4.7,4.7
		h3.6c2.6,0,4.7-2.1,4.7-4.7V89.3H208V102c0,2.6,2.1,4.7,4.7,4.7h3.6c2.6,0,4.7-2.1,4.7-4.7v-0.3c0.4,0.1,0.8,0.2,1.3,0.2h3.6
		c2.6,0,4.7-2.1,4.7-4.7v-1.5c0.5,0.2,1,0.3,1.5,0.3h3.6c2.6,0,4.7-2.1,4.7-4.7V76.3C240.5,73.7,238.4,71.5,235.8,71.5z M235.8,92.5
		h-3.6c-0.7,0-1.3-0.6-1.3-1.3V76.3c0-0.7,0.6-1.3,1.3-1.3h3.6c0.7,0,1.3,0.6,1.3,1.3v14.9C237,91.9,236.5,92.5,235.8,92.5z
		 M225.9,98.4h-3.6c-0.7,0-1.3-0.6-1.3-1.3V70.3c0-0.7,0.6-1.3,1.3-1.3h3.6c0.7,0,1.3,0.6,1.3,1.3v26.8
		C227.2,97.9,226.7,98.4,225.9,98.4z M211.5,89.3V78.2V65.5c0-0.7,0.6-1.3,1.3-1.3h3.6c0.7,0,1.3,0.6,1.3,1.3v4.8v26.8v4.8
		c0,0.7-0.6,1.3-1.3,1.3h-3.6c-0.7,0-1.3-0.6-1.3-1.3V89.3z M208,81.6v4.3h-45.6v-4.3H208z M159,89.3V102c0,0.7-0.6,1.3-1.3,1.3
		h-3.6c-0.7,0-1.3-0.6-1.3-1.3v-4.8V70.3v-4.8c0-0.7,0.6-1.3,1.3-1.3h3.6c0.7,0,1.3,0.6,1.3,1.3v12.7V89.3z M143.3,70.3
		c0-0.7,0.6-1.3,1.3-1.3h3.6c0.7,0,1.3,0.6,1.3,1.3v26.8c0,0.7-0.6,1.3-1.3,1.3h-3.6c-0.7,0-1.3-0.6-1.3-1.3V70.3z M133.5,76.3
		c0-0.7,0.6-1.3,1.3-1.3h3.6c0.7,0,1.3,0.6,1.3,1.3v14.9c0,0.7-0.6,1.3-1.3,1.3h-3.6c-0.7,0-1.3-0.6-1.3-1.3V76.3z"/>
</g>
</svg>
