<?xml version="1.0" encoding="utf-8"?>
<!-- Generator: Adobe Illustrator 21.1.0, SVG Export Plug-In . SVG Version: 6.00 Build 0)  -->
<svg version="1.1" id="Camada_1" xmlns="http://www.w3.org/2000/svg" xmlns:xlink="http://www.w3.org/1999/xlink" x="0px" y="0px"
	 viewBox="0 0 370.5 257.3" style="enable-background:new 0 0 370.5 257.3;" xml:space="preserve">
<style type="text/css">
	.st0{fill:#FFFFFF;}
	.st1{fill:#FFFFFF;stroke:#FFFFFF;stroke-width:2;stroke-miterlimit:10;}
</style>
<g>
	<g>
		<path class="st0" d="M97.5,257.3H69.8v-38.5h27.7v8.5H80.1v6.2h16.3v8.3H80.1v7h17.5V257.3z"/>
		<path class="st0" d="M133.1,257.3h-10.5v-30.1h-11.3v30.1h-10.4v-38.5h24.9c0.5,0,1.8,0.9,3.8,2.7c1.6,1.4,2.8,2.6,3.6,3.5V257.3z
			"/>
		<path class="st0" d="M166.2,257.3h-27.7v-38.5h27.7v8.5h-17.5v6.2h16.3v8.3h-16.3v7h17.5V257.3z"/>
		<path class="st0" d="M200.8,236.2c-1.6,1.5-2.7,2.7-3.4,3.7c0.4,0.6,1.5,1.8,3.4,3.7v13.6h-10.3v-12.5h-11.3v12.5H169v-38.5h25.6
			c0.4,0,2.5,1.7,6.3,5.1V236.2z M190.6,236.6v-9.4h-11.3v9.4H190.6z"/>
		<path class="st0" d="M236.3,257.1h-26.1c-1.3-1.2-3.5-3.2-6.5-5.8v-26.8c4.4-3.9,6.9-5.8,7.5-5.8h25.2v8.3h-22.4v21.6H226v-6.2
			c-0.8-0.1-1.7-0.1-2.6-0.1c-0.9,0-1.9,0-3,0v-7.2h15.9V257.1z"/>
		<path class="st0" d="M252.3,257.1H242v-38.4h10.3V257.1z"/>
		<path class="st0" d="M289.4,257.3h-10.3v-10.7h-11.3v10.7h-10.4V225c4.2-4.1,6.7-6.2,7.5-6.2h17.4c0.6,0,3,2.1,7.1,6.2V257.3z
			 M279.1,238.5v-11.3h-11.3v11.3H279.1z"/>
	</g>
	<path class="st0" d="M370.5,45.4h-60H266C249.4,18.2,219.5,0,185.3,0s-64.2,18.2-80.8,45.4H60H0l18.7,29.9h74
		c-0.5,2.5-0.9,4.9-1.2,7.5H23.4l12.3,19.7h55.3c0.2,2.5,0.5,5,0.9,7.5H40.5l18.9,30.2H60h42.5c16.1,29.1,47.1,48.9,82.8,48.9
		s66.7-19.7,82.8-48.9h42.5h0.7l18.9-30.2h-51.6c0.4-2.5,0.7-5,0.9-7.5h55.3l12.3-19.7H279c-0.3-2.5-0.7-5-1.2-7.5h74L370.5,45.4z
		 M185.3,169.2c-41.2,0-74.7-33.4-74.7-74.7s33.4-74.7,74.7-74.7s74.7,33.4,74.7,74.7S226.5,169.2,185.3,169.2z"/>
	<path class="st1" d="M227.6,99.8c-0.4-0.5-0.8-1-1.2-1.4c0,0-1.8-1.8-4.6-3c-0.6-0.2-1.1-0.4-1.7-0.6c-3-0.8-6.2-0.5-9,0.8
		c-1.7,0.8-3.3,1.9-4.5,3.3l-0.8,0.9l-0.8-0.9c-1.2-1.3-2.6-2.4-4.2-3.2l-1-0.5l11.1-27l1.5,6.6c0.2,0.7,0.9,1.2,1.6,1
		c0.7-0.2,1.2-0.9,1-1.6l-2.4-10.8c0,0,0-0.1,0-0.1l0,0c0,0,0-0.1,0-0.1l-0.1-0.3c0,0,0-0.1-0.1-0.1l-0.3-0.2l0,0c0,0,0,0-0.1,0l0,0
		c0,0-0.1,0-0.1,0l-0.3-0.1l-0.1,0c0,0-0.1,0-0.1,0l-0.1,0c0,0-0.1,0-0.1,0l-0.1,0c0,0,0,0-0.1,0l0,0c0,0,0,0,0,0c0,0-0.1,0-0.1,0
		l0,0c0,0,0,0-0.1,0l-0.2,0.1l-9.3,5.8c-0.3,0.2-0.5,0.5-0.6,0.8c-0.1,0.3,0,0.7,0.2,1c0.2,0.3,0.5,0.5,0.8,0.6c0.3,0.1,0.7,0,1-0.2
		l5.8-3.6l-11.3,27.4l-0.8-0.1c-1.7-0.2-3.3-0.1-4.9,0.3c-0.1,0-0.1,0-0.2,0.1l-1.2,0.3l-11.8-38.3c-0.2-0.6-0.7-0.9-1.3-0.9
		c-0.6,0-1.1,0.4-1.3,1L162,111.1L158,86.7c-0.1-0.7-0.9-0.9-1.6-0.9l-27.5,0l-0.1,2.4l26.5,0l4.9,29.3c0.1,0.6,0.7,1.3,1.3,1.3
		l0.1,0.1c0.6,0,1.2-0.4,1.3-0.9l14.2-55.7l10.6,34.2l-0.7,0.5c-1.2,0.8-2.2,1.8-3,3c-1.8,2.4-3,5.5-2.9,8.5l-0.2,0.1v0v0.1
		c0,3.2,1.1,6.3,2.8,8.9c1.6,2.7,3.8,5.2,6.3,7.3c1,0.8,2,1.7,2.9,2.5l0.5,0.4l5.9,5.4c1.7,1.7,3.4,3.8,5.4,6.6l0,0
		c0,0,0.1,0.1,0.1,0.1c0,0,0.1,0.1,0.1,0.1l0,0c0,0,0.1,0,0.1,0.1l0,0c0,0,0,0,0.1,0l0.1,0c0,0,0,0,0.1,0.1l0.2,0.1h0l0.3,0
		c0.1,0,0.1,0,0.1,0h0c0,0-0.2,0-0.2,0v0v0v0l0.6-0.1c0,0,0.1,0,0.2,0l0.1,0c0,0,0,0,0.1,0l0.1,0c0,0,0,0,0.1,0l0,0
		c0,0,0.1,0,0.1-0.1c0,0,0.1-0.1,0.1-0.1l0,0c1.9-2.7,3.5-4.6,5.1-6.3c2.1-2.2,4.4-4.1,6.8-6.2c0.9-0.8,1.9-1.6,2.8-2.4
		c2.5-2.1,4.6-4.5,6.2-7.2c1.6-2.5,2.5-5.5,2.6-9l0-0.1C230.4,105.3,229.5,102.3,227.6,99.8 M227.7,108.3c-0.1,3-0.9,5.6-2.2,7.7
		c0,0,0,0,0,0l0,0.1c-1.4,2.5-3.3,4.7-5.5,6.5l-0.1,0.1c-0.9,0.8-1.8,1.6-2.7,2.4c-2.4,2-4.8,4.1-7,6.4c-1.1,1.2-2.2,2.4-3.3,3.9
		l-0.9,1.2l-0.9-1.2c-1.3-1.6-2.4-3-3.7-4.3c-0.2-0.2-0.5-0.5-0.7-0.7l-0.1-0.1c-0.1-0.1-0.2-0.2-0.2-0.2l-0.1-0.1
		c-1.8-1.7-3.7-3.4-5.4-4.8l-0.2-0.1c-0.9-0.7-1.7-1.5-2.6-2.3l-0.1,0c0,0,0,0,0,0c-2.3-1.9-4.2-4.1-5.6-6.5c0,0,0,0,0-0.1l0,0
		c-1.4-2.2-1.9-4.8-1.9-7.6l0.3,0v0c0-4.2,1.8-8,5.4-10l0-0.1c0.1,0,0.1-0.1,0.2-0.1l0.1-0.1c0.6-0.3,1.3-0.6,2-0.7
		c1.8-0.5,3.6-0.5,5.4,0l0.1,0c3,0.8,5.5,2.8,6.9,5.5l0,0c0,0,0,0.1,0,0.1l0.2,0.3l0.1,0.1c0,0,0,0,0.1,0l0.1,0c0,0,0,0,0.1,0
		l0.4,0.1l0.3,0l0.4-0.1l0.3-0.1c0,0,0,0,0.1,0l0.1-0.1l0.1,0l0.3-0.3c0,0,0,0,0-0.1l0-0.1c2.3-4.5,7.6-6.9,12.5-5.6
		c1.5,0.4,2.9,1.1,4.1,2.1l0.1,0.1c0.1,0.1,0.2,0.2,0.3,0.2l0.1,0.1C226.5,102.1,227.8,105.1,227.7,108.3"/>
</g>
</svg>
