<?xml version="1.0" encoding="utf-8"?>
<!-- Generator: Adobe Illustrator 21.1.0, SVG Export Plug-In . SVG Version: 6.00 Build 0)  -->
<svg version="1.1" id="Camada_1" xmlns="http://www.w3.org/2000/svg" xmlns:xlink="http://www.w3.org/1999/xlink" x="0px" y="0px"
	 viewBox="0 0 370.5 246.2" style="enable-background:new 0 0 370.5 246.2;" xml:space="preserve">
<style type="text/css">
	.st0{fill:#FFFFFF;}
</style>
<g>
	<g>
		<path class="st0" d="M82,235.7c-4.1,4.1-6.6,6.1-7.4,6.1H49.8v-38.3h24.8c0.8,0,3.3,2.1,7.4,6.2V235.7z M71.3,233.4v-21.5H60v21.5
			H71.3z"/>
		<path class="st0" d="M115.4,242H87.7v-38.4h27.7v8.4H98v6.2h16.3v8.3H98v7h17.4V242z"/>
		<path class="st0" d="M148.6,212.1h-17.4v6.2h16.3v8.1h-16.2V242H121v-38.4h27.7V212.1z"/>
		<path class="st0" d="M163.6,241.8h-10.2v-38.2h10.2V241.8z"/>
		<path class="st0" d="M199.8,242h-10.5v-30H178v30h-10.4v-38.4h24.8c0.5,0,1.8,0.9,3.8,2.7c1.6,1.4,2.8,2.6,3.6,3.5V242z"/>
		<path class="st0" d="M216.2,241.8H206v-38.2h10.2V241.8z"/>
		<path class="st0" d="M250.2,216.9h-9.4V212h-11.1v21.5h20.5v8.4h-24.1c-1.4-1.3-3.6-3.2-6.6-5.8v-26.8l4.3-3.6
			c1.7-1.5,2.8-2.2,3.2-2.2h23.3V216.9z"/>
		<rect x="233.1" y="237.8" class="st0" width="8.4" height="8.4"/>
		<path class="st0" d="M285.8,242h-10.2v-10.6h-11.2V242h-10.4v-32.2c4.2-4.1,6.6-6.2,7.4-6.2h17.4c0.6,0,3,2.1,7,6.2V242z
			 M275.5,223.3V212h-11.2v11.3H275.5z"/>
		<rect x="260.9" y="192.9" class="st0" width="18.1" height="8.4"/>
		<path class="st0" d="M320.7,236c-1.4,1.2-3.5,3.1-6.1,5.9h-19.9c-1.4-1.3-3.6-3.3-6.5-5.9v-26.8c4.4-3.9,6.9-5.8,7.4-5.8h17.8
			c0.9,0,2.1,0.8,3.5,2.3c1.8,1.9,3.1,3,3.9,3.5V236z M310.5,233.4v-21.6h-12.1v21.6H310.5z"/>
	</g>
	<g>
		<g>
			<path class="st0" d="M351.8,60.2l18.7-29.9h-60h-32.8L295.3,0h-220l17.5,30.3H60H0l18.7,29.9H110l4.3,7.5H23.4l12.3,19.7h89.9
				l4.3,7.5H40.5L59.3,125H60h87.4l11.7,20.3l26.1,45.2l26.1-45.2l11.7-20.3h87.4h0.7l18.9-30.2h-89.6l4.3-7.5h89.9l12.3-19.7h-90.9
				l4.3-7.5H351.8z M247.9,43.6l-13.7,23.6l-1.7,2.9l-13.7,23.6l-1.7,2.9l-13.7,23.6l-17.8,30.9l-17.8-30.9l-13.7-23.6l-1.7-2.9
				l-13.7-23.6l-1.7-2.9l-13.7-23.6l-13.1-22.7h150.4L247.9,43.6z"/>
		</g>
		<path class="st0" d="M206.9,49.4c-0.5-0.5-1.2-0.7-1.9-0.6c-0.7,0.1-1.3,0.6-1.6,1.2l-3,6c-1.9-5.9-5.2-9.6-8.1-12.9
			c-2.7-3-5.1-5.6-6.2-9.5c-0.2-0.7-0.7-1.2-1.3-1.4c-0.6-0.3-1.3-0.2-1.9,0.1c-0.2,0.1-17.7,10.4-16.7,29.2
			c-1.4-1.1-2.8-2.4-4.1-3.6c-0.5-0.5-1.3-0.8-2.1-0.6c-0.8,0.2-1.4,0.7-1.6,1.5c-0.4,1.3-0.7,2.3-1,3.2c-1.2,3.4-1.5,4.6-1.3,9.6
			c0.1,3.5,0.9,12.3,6.3,20.2c5.3,7.7,13.3,11.8,23.3,11.8c0,0,0,0,0,0l0,0l0,0c10.1,0,18.2-3.8,23.4-11.1
			c5.4-7.5,6.2-16.4,6.2-20.9C215.2,57.3,207.3,49.7,206.9,49.4z M175.5,86.4c0-2.2,0.4-4,0.9-5.4l0.9,1.9c0.4,0.9,1.4,1.4,2.4,1.3
			c1-0.2,1.7-1,1.8-2c0.3-4,1.8-5.8,3.5-7.9c0.7-0.9,1.5-1.8,2.1-3c2.1,2.2,4.8,6.2,3.6,12c-0.2,0.9,0.2,1.8,1,2.3
			c0.8,0.5,1.8,0.4,2.5-0.1c0,0,0.6-0.4,1.3-1.1c0,0.4,0,0.9,0,1.7c-0.1,3-1,6.2-2.3,8.4c-1.8,2.9-4.3,4.4-7.7,4.4c0,0,0,0,0,0
			C176,99,175.5,88.5,175.5,86.4z M197.4,96.5c1.5-2.5,2.5-5.8,2.6-10.1c0.1-2.6-0.1-3.3-0.6-5.1c-0.1-0.4-0.3-0.9-0.5-1.6
			c-0.2-0.8-0.8-1.4-1.6-1.6c-0.7-0.2-1.4,0-1.9,0.4c-0.9-8.2-7.6-12.5-7.9-12.7c-0.6-0.4-1.3-0.5-2-0.2c-0.7,0.3-1.2,0.8-1.3,1.5
			c-0.5,1.8-1.4,2.9-2.6,4.4c-0.9,1.1-1.9,2.3-2.7,4l-0.1-0.3c-0.3-0.7-0.9-1.1-1.6-1.3c-0.7-0.1-1.5,0.1-2,0.7
			c-0.2,0.2-4,4.3-4,11.8c0,3.4,0.7,6.8,2.2,9.6c-9.5-5.5-12.7-17-12.9-24.7c-0.1-4.4,0.1-5.1,1.1-8c3.1,2.7,6.1,4.8,6.3,4.9
			c0.7,0.5,1.7,0.5,2.5,0c0.8-0.5,1.1-1.4,0.9-2.3c-3.5-15.2,6.9-24.9,11.7-28.4c1.6,3.4,3.9,6,6.1,8.5c3.8,4.2,7.5,8.2,8.3,16.9
			c0.1,1,0.8,1.8,1.8,2c1,0.2,1.9-0.3,2.4-1.2l4.4-8.7c2,3,4.9,8.5,4.9,16.4C210.8,81,207.1,91.7,197.4,96.5z"/>
	</g>
</g>
</svg>
