<svg id="Layer_1" data-name="Layer 1" xmlns="http://www.w3.org/2000/svg" viewBox="0 0 269.29 226.77"><defs><style>.cls-1{fill:red;fill-rule:evenodd;}.cls-2{fill:none;}.cls-3{fill:#fff;}.cls-4{fill:#a6a8ab;}</style></defs><title>logo-midway</title><path class="cls-1" d="M134.65,188.78A93.83,93.83,0,1,0,40.82,95a94,94,0,0,0,93.83,93.82"/><path class="cls-2" d="M130.7,67.85,86.46,68l18.73,31c.13-3.52,1-7.7,1-9.35-1-2.27,1.84-4.12,3.37-4.6.89-.34,1.71-.7,2.6-1s1.63-.57,2.42-.86c5.82-2,10.94-1.53,14.53-1.75a32.54,32.54,0,0,0,2.11-9.29C131.37,70.54,130.56,69.5,130.7,67.85Z"/><polygon class="cls-2" points="169.86 129.36 168.33 136.43 171.5 136.43 169.99 129.36 169.86 129.36"/><path class="cls-2" d="M125,136.36l-3.16-5.22h.09a5.71,5.71,0,0,1,3.1.72l.85,1.4a3.79,3.79,0,0,0-1.13-2.8,5.13,5.13,0,0,0-3.5-1h-.33v8.22a5.93,5.93,0,0,0,3.78-1A4.11,4.11,0,0,0,125,136.36Z"/><path class="cls-2" d="M157.74,74.63c.46,1.3,1.34,1.8,2.15,2.82a6.94,6.94,0,0,1,.63.93c1.65,3,1.12,8.79,1.1,12.82,0,.42,0,.81,0,1.19a5.59,5.59,0,0,1,1.32,1.71,5.18,5.18,0,0,1,1.84.62l16-27.09-25.39.11a13.18,13.18,0,0,1,2,5.5C157.48,73.82,157.62,74.27,157.74,74.63Z"/><path class="cls-2" d="M159.46,103.76a4.62,4.62,0,0,1-3.36-5,4.84,4.84,0,0,1,2.4-3.39c-.31-.16-.78.22-1.08.41.35-.67.45-1.28,1.09-1.69a3.16,3.16,0,0,0,1.08-1,35.36,35.36,0,0,0-3.81-6.77c-1.05-1.67-2.77-3.84-2.46-6.93l1.5-.05a5.64,5.64,0,0,1-3.37-2,15.84,15.84,0,0,1-3-6.38,28.36,28.36,0,0,1-5.36,6.51c-2,3.81-.77,3.93-.78,4.54.88,2.54,1.21,5.18-.6,7.45-1,1.3-2.89,2.61-7.23,3.12a14.67,14.67,0,0,0,5-.6,22.55,22.55,0,0,1-1.42,7.37,33.08,33.08,0,0,0-3,11.07c3.47-1,6.09-.72,8.09.13s3.45,2.4,5.68,3.27a19,19,0,0,0,4.07,1.1Z"/><path class="cls-2" d="M201.39,119.17a1,1,0,0,0-.54-.12h-.25v1.08h.15a1.08,1.08,0,0,0,.6-.14.49.49,0,0,0,.21-.42A.47.47,0,0,0,201.39,119.17Z"/><path class="cls-2" d="M203.12,120.29h0a2.19,2.19,0,0,0-.66-1.57h0a2.2,2.2,0,0,0-1.58-.66h0a2.25,2.25,0,0,0-2.24,2.24h0a2.25,2.25,0,0,0,2.24,2.23h0a2.24,2.24,0,0,0,2.24-2.24h0Zm-1.65,1.56-.87-1.55v1.55H200V118.5h.79a3.85,3.85,0,0,1,.57,0,1.16,1.16,0,0,1,.31.08,1,1,0,0,1,.44.37,1.08,1.08,0,0,1,.15.57,1,1,0,0,1-.21.66,1,1,0,0,1-.59.34l.84,1.3Z"/><rect class="cls-3" x="103.84" y="122.92" width="7.76" height="21.22"/><polygon class="cls-3" points="91.79 122.92 88.76 132.69 88.63 132.69 85.73 122.92 77.85 122.92 74.23 144.14 81.72 144.14 82.96 134.23 86.35 144.14 90.89 144.14 94.28 134.23 95.53 144.14 103.01 144.14 99.65 122.92 91.79 122.92"/><path class="cls-3" d="M203.59,120.29a2.7,2.7,0,0,0-2.71-2.7h0a2.66,2.66,0,0,0-1.91.79,2.71,2.71,0,0,0-.8,1.92h0a2.7,2.7,0,0,0,2.71,2.7h0a2.71,2.71,0,0,0,2.71-2.71h0Zm-.47,0a2.24,2.24,0,0,1-2.24,2.24h0a2.25,2.25,0,0,1-2.24-2.23h0a2.25,2.25,0,0,1,2.24-2.24h0a2.2,2.2,0,0,1,1.58.66h0a2.19,2.19,0,0,1,.66,1.57h0Z"/><path class="cls-3" d="M202,120.21a1,1,0,0,0,.21-.66,1.08,1.08,0,0,0-.15-.57,1,1,0,0,0-.44-.37,1.16,1.16,0,0,0-.31-.08,3.85,3.85,0,0,0-.57,0H200v3.35h.65V120.3l.87,1.55h.78l-.84-1.3A1,1,0,0,0,202,120.21Zm-1.25-.08h-.15v-1.08h.25a1,1,0,0,1,.54.12.47.47,0,0,1,.17.4.49.49,0,0,1-.21.42A1.08,1.08,0,0,1,200.75,120.13Z"/><polygon class="cls-3" points="187.03 127.97 184.19 122.88 175.92 122.92 183.03 134.76 183.03 144.14 190.72 144.14 190.72 134.76 198.08 122.92 189.78 122.92 187.03 127.97"/><path class="cls-2" d="M158.51,94.1a3.16,3.16,0,0,0,1.08-1,35.36,35.36,0,0,0-3.81-6.77c-1.05-1.67-2.77-3.84-2.46-6.93l1.5-.05a5.64,5.64,0,0,1-3.37-2,15.84,15.84,0,0,1-3-6.38,28.36,28.36,0,0,1-5.36,6.51c-2,3.81-.77,3.93-.78,4.54.88,2.54,1.21,5.18-.6,7.45-1,1.3-2.89,2.61-7.23,3.12a14.67,14.67,0,0,0,5-.6,22.55,22.55,0,0,1-1.42,7.37,33.08,33.08,0,0,0-3,11.07c3.47-1,6.09-.72,8.09.13s3.45,2.4,5.68,3.27a19,19,0,0,0,4.07,1.1l6.54-11.09a4.62,4.62,0,0,1-3.36-5,4.84,4.84,0,0,1,2.4-3.39c-.31-.16-.78.22-1.08.41C157.77,95.12,157.87,94.51,158.51,94.1Z"/><path class="cls-2" d="M130.7,67.85,86.46,68l18.73,31c.13-3.52,1-7.7,1-9.35-1-2.27,1.84-4.12,3.37-4.6.89-.34,1.71-.7,2.6-1s1.63-.57,2.42-.86c5.82-2,10.94-1.53,14.53-1.75a32.54,32.54,0,0,0,2.11-9.29C131.37,70.54,130.56,69.5,130.7,67.85Z"/><path class="cls-2" d="M125,136.36l-3.16-5.22h.09a5.71,5.71,0,0,1,3.1.72l.85,1.4a3.79,3.79,0,0,0-1.13-2.8,5.13,5.13,0,0,0-3.5-1h-.33v8.22a5.93,5.93,0,0,0,3.78-1A4.11,4.11,0,0,0,125,136.36Z"/><path class="cls-2" d="M157.33,73.24c.15.58.29,1,.41,1.39.46,1.3,1.34,1.8,2.15,2.82a6.94,6.94,0,0,1,.63.93c1.65,3,1.12,8.79,1.1,12.82,0,.42,0,.81,0,1.19a5.59,5.59,0,0,1,1.32,1.71,5.18,5.18,0,0,1,1.84.62l16-27.09-25.39.11A13.18,13.18,0,0,1,157.33,73.24Z"/><path class="cls-3" d="M184.88,65.25H182.8l-28.23.12c.18-2.23-1-5.45-5.77-4.67-.52-.23-1.05-.47-1.57-.72a8.54,8.54,0,0,1-.84-4.79c-.19,0-.49.13-.68.15l.83-.55c3.57-2.62,2.87-8.74-2.22-9.55a6,6,0,0,0-5.84,2.45,2.48,2.48,0,0,0-.62,1.86c-.54.53-1.15.95-1.69,1.47-.36.36-.8.64-.27.9l.49.23c.52.26,0,.34-.12.73a.69.69,0,0,0,.06.51c-.25.18-.38.25-.4.35s0,.23.12.52c-.41.6-.72,1.06-.17,1.68s1.76.71,2.61,1a7.31,7.31,0,0,1-.38,1.48c-1.83-2.43-4.56-3-7.38-2.67l1.51-.36c-1.75-2.06-4-3-10.88-5-1.71-3.06-6.9-3.6-9.88-5.05-1.72-.84-3.68-3.26-5.35-4.2a9.12,9.12,0,0,0-2.66-.67,8.14,8.14,0,0,1-3.22-1.15c-.44-.28-1-1-1.59-.8a.47.47,0,0,0-.32.43c-.07.81,3.73,3,4.66,3.43-1.28.26-1.77-1.12-2.74-.74-.37.14-.65.6-.15.86a6.73,6.73,0,0,1,1.6,1.27,2.59,2.59,0,0,0,1.25.88,22.34,22.34,0,0,0,2.83.23,4.92,4.92,0,0,1,1,.54A23.24,23.24,0,0,1,110,48.35c1.64,1.75,3.22,4.09,4.74,5.14A10.09,10.09,0,0,0,118.81,55c2.54,3.55,6.82,4.74,8.29,5.06,1.46,1.62,2.59,3.81,4.05,5.21.09-.18.32-.28.41-.46.1.1,0,.13.13.24-.08.15-.16.29-.23.44l-47.09.2H82.28l1.08,1.78L106,104.92A25.94,25.94,0,0,1,105.9,115c-2.17.28-5.07,1.82-7.4,2.31-1.92.1-3.37,0-3.65.81.16,1.35,1.36,1.07,2,1,2.47.85,3.75.23,5.62.34a39.34,39.34,0,0,1,5.1.17c2.38.41,5.35.71,3.43-3.83a3.57,3.57,0,0,0-.19-2.8s0,0,0,0l6.06,10h-3.53v21.22H119a38.59,38.59,0,0,0,5.55-.32,10.91,10.91,0,0,0,3.42-1,10.64,10.64,0,0,0,4.24-3.84,10.8,10.8,0,0,0,0-10.86,10.6,10.6,0,0,0-4.23-3.84,10.73,10.73,0,0,0-3.39-1,32.64,32.64,0,0,0-4.92-.33l-8.27-13.68c.06-.31.12-.61.19-.92.32-1.45.68-2.92,1.12-4.42l-.9.67c2-3.19,3.86-7.24,1.86-13,2.67-.73,8.74,1.1,13,1.29a51.14,51.14,0,0,0-.77,7.81c-.09,4.23.11,8.91,1.82,12.56-.18,3.71,2.15,2.42,3.51,2.91,2.46.77,4.7,1.19,7.19,1.77a50,50,0,0,0,12.29.81l-2.49,4.21H144.6l-2.53,10.26h-.17l-2.15-10.26H132.1l5.31,18.18-3.33,5.74-2.66-4.39a11.48,11.48,0,0,1-1.85,1.49l3.51,5.8,1,1.69,1-1.7,3.25-5.59H145l2.19-8.18h.27l2.19,8.18h6.66l6.21-21.22h-7.66l-2.15,10.26h-.17L150.25,124l3.16-5.37,2.25,0c2,.42,4.78,1.82,7.05,2.22a21.1,21.1,0,0,0,3.25.5c1.78.09,3.5.33,4.75.4.48,0,1.68.25,1.45-.59-.1-.38-.63-1-2.5-1.83a6.56,6.56,0,0,0-3.9-1.56,11.5,11.5,0,0,0-2.65.29l1-.56c-.95-.83-1.79-2.23-2.76-3a2.13,2.13,0,0,0-3,0,8.64,8.64,0,0,1-2.82.5l6.54-11.09a6.15,6.15,0,0,0,3.26-1.68,4.75,4.75,0,0,0,1.15-5.61.54.54,0,0,0-.05-.11L183.83,67Zm-64,64.19h.33a5.13,5.13,0,0,1,3.5,1,3.79,3.79,0,0,1,1.13,2.8l-.85-1.4a5.71,5.71,0,0,0-3.1-.72h-.09l3.16,5.22a4.11,4.11,0,0,1-.3.29,5.93,5.93,0,0,1-3.78,1Zm8.24-48c-3.59.22-8.71-.25-14.53,1.75-.79.29-1.64.56-2.42.86s-1.71.69-2.6,1c-1.53.48-4.35,2.33-3.37,4.6,0,1.65-.91,5.83-1,9.35L86.46,68l44.24-.19c-.14,1.65.67,2.69.56,4.31A32.54,32.54,0,0,1,129.15,81.45ZM158.5,95.38a4.84,4.84,0,0,0-2.4,3.39,4.62,4.62,0,0,0,3.36,5l-6.54,11.09a19,19,0,0,1-4.07-1.1c-2.23-.87-3.62-2.39-5.68-3.27s-4.62-1.09-8.09-.13a33.08,33.08,0,0,1,3-11.07,22.55,22.55,0,0,0,1.42-7.37,14.67,14.67,0,0,1-5,.6c4.34-.51,6.2-1.82,7.23-3.12,1.81-2.27,1.48-4.91.6-7.45,0-.61-1.21-.73.78-4.54a28.36,28.36,0,0,0,5.36-6.51,15.84,15.84,0,0,0,3,6.38,5.64,5.64,0,0,0,3.37,2l-1.5.05c-.31,3.09,1.41,5.26,2.46,6.93a35.36,35.36,0,0,1,3.81,6.77,3.16,3.16,0,0,1-1.08,1c-.64.41-.74,1-1.09,1.69C157.72,95.6,158.19,95.22,158.5,95.38Zm6.28-.66a5.18,5.18,0,0,0-1.84-.62,5.59,5.59,0,0,0-1.32-1.71c0-.38,0-.77,0-1.19,0-4,.55-9.84-1.1-12.82a6.94,6.94,0,0,0-.63-.93c-.81-1-1.69-1.52-2.15-2.82-.12-.36-.26-.81-.41-1.39a13.18,13.18,0,0,0-2-5.5l25.39-.11Z"/><path class="cls-3" d="M165.78,122.92l-7.57,21.22h8.19l.65-2.67h5.76l.68,2.67h8.21l-7.42-21.22Zm2.55,13.51,1.53-7.07H170l1.51,7.07Z"/><path class="cls-4" d="M32.8,210.05h7.36a5.73,5.73,0,0,1,4.14,1.4,3.63,3.63,0,0,1,1.09,2.7v0a3.68,3.68,0,0,1-2.08,3.42c1.83.7,3,1.77,3,3.9v0c0,2.9-2.35,4.35-5.93,4.35H32.8Zm6.61,6.41c1.54,0,2.52-.5,2.52-1.68v0c0-1-.82-1.63-2.29-1.63H36.2v3.35Zm.93,6.38c1.54,0,2.47-.54,2.47-1.72v0c0-1.07-.79-1.72-2.58-1.72h-4v3.48Z"/><path class="cls-4" d="M48.89,219.11v-9.06h3.49v9c0,2.58,1.29,3.91,3.42,3.91s3.42-1.29,3.42-3.8v-9.08h3.49V219c0,4.8-2.7,7.16-7,7.16S48.89,223.77,48.89,219.11Z"/><path class="cls-4" d="M66.42,210.05H69.9V225.9H66.42Z"/><path class="cls-4" d="M73.86,210.05h3.49v12.68h7.9v3.17H73.86Z"/><path class="cls-4" d="M87.87,210.05h6.19c5,0,8.42,3.42,8.42,7.88v0c0,4.47-3.44,7.93-8.42,7.93H87.87Zm6.19,12.7A4.51,4.51,0,0,0,98.83,218V218a4.55,4.55,0,0,0-4.77-4.77h-2.7v9.55Z"/><path class="cls-4" d="M116.83,219.65l-6.09-9.6h4.07l3.78,6.36,3.85-6.36h4l-6.1,9.53v6.32h-3.48Z"/><path class="cls-4" d="M126.51,218V218a8.43,8.43,0,0,1,16.85,0v0a8.43,8.43,0,0,1-16.85.05Zm13.21,0V218a4.82,4.82,0,0,0-4.8-5,4.74,4.74,0,0,0-4.76,4.94v0a4.82,4.82,0,0,0,4.8,5A4.74,4.74,0,0,0,139.72,218Z"/><path class="cls-4" d="M146.21,219.11v-9.06h3.49v9c0,2.58,1.29,3.91,3.42,3.91s3.41-1.29,3.41-3.8v-9.08H160V219c0,4.8-2.69,7.16-7,7.16S146.21,223.77,146.21,219.11Z"/><path class="cls-4" d="M163.57,210.05h7.25a6.35,6.35,0,0,1,4.62,1.61,5,5,0,0,1,1.35,3.62v.05a4.93,4.93,0,0,1-3.39,4.91l3.87,5.66h-4.08l-3.39-5.07h-2.74v5.07h-3.49Zm7,7.7c1.7,0,2.67-.91,2.67-2.24v0c0-1.49-1-2.26-2.74-2.26h-3.46v4.55Z"/><path class="cls-4" d="M178.85,223.59l2.06-2.47a7.27,7.27,0,0,0,4.73,1.93c1.43,0,2.29-.57,2.29-1.5v0c0-.89-.54-1.34-3.19-2-3.2-.81-5.26-1.7-5.26-4.84v-.05c0-2.87,2.31-4.78,5.55-4.78a9.19,9.19,0,0,1,5.89,2l-1.81,2.62A7.49,7.49,0,0,0,185,212.9c-1.34,0-2,.61-2,1.38v.05c0,1,.68,1.38,3.42,2.08,3.21.84,5,2,5,4.76v0c0,3.15-2.4,4.92-5.82,4.92A10.09,10.09,0,0,1,178.85,223.59Z"/><path class="cls-4" d="M194.42,210.05h12v3.1h-8.49v3.22h7.47v3.1h-7.47v3.33h8.6v3.1H194.42Z"/><path class="cls-4" d="M209.59,210.05h3.49v12.68H221v3.17H209.59Z"/><path class="cls-4" d="M223.6,210.05h12.07v3.17h-8.58v3.37h7.56v3.17h-7.56v6.14H223.6Z"/><path class="cls-4" d="M242.39,210.64v1h-2v5.14H239.2v-5.14h-2v-1Zm6.66,6.16-.23-3.63c0-.47,0-1.06,0-1.72h-.07c-.16.55-.34,1.27-.52,1.84l-1.11,3.42h-1.27l-1.11-3.51c-.11-.48-.29-1.2-.43-1.75h-.07c0,.57,0,1.16,0,1.72l-.23,3.63h-1.18l.46-6.16H245l1.07,3c.13.47.25.93.4,1.56h0c.16-.56.29-1.09.43-1.54l1.06-3h1.77l.47,6.16Z"/></svg>