<svg id="Layer_1" data-name="Layer 1" xmlns="http://www.w3.org/2000/svg" viewBox="0 0 183.85 65"><defs><style>.cls-1{fill:#a6a8ab;}.cls-2{fill:#e41e28;fill-rule:evenodd;}.cls-3{fill:none;}.cls-4{fill:#fff;}</style></defs><title>logo-midway</title><path class="cls-1" d="M74.39,16h5.77a4.49,4.49,0,0,1,3.25,1.11,2.83,2.83,0,0,1,.86,2.11v0a2.9,2.9,0,0,1-1.64,2.69A3,3,0,0,1,85,25v0c0,2.27-1.85,3.41-4.65,3.41H74.39Zm5.19,5c1.2,0,2-.39,2-1.31v0c0-.82-.64-1.28-1.8-1.28h-2.7V21Zm.73,5c1.2,0,1.93-.43,1.93-1.35v0c0-.83-.62-1.34-2-1.34H77.05V26Z"/><path class="cls-1" d="M87,23.1V16h2.73v7c0,2,1,3.07,2.68,3.07s2.69-1,2.69-3V16h2.73v7c0,3.77-2.11,5.61-5.45,5.61S87,26.76,87,23.1Z"/><path class="cls-1" d="M100.76,16h2.74V28.43h-2.74Z"/><path class="cls-1" d="M106.6,16h2.74v10h6.2v2.49H106.6Z"/><path class="cls-1" d="M117.59,16h4.85c3.91,0,6.61,2.69,6.61,6.19v0c0,3.5-2.7,6.22-6.61,6.22h-4.85Zm4.85,10a3.54,3.54,0,0,0,3.75-3.71v0a3.57,3.57,0,0,0-3.75-3.75h-2.11V26Z"/><path class="cls-1" d="M79.17,43.89l-4.78-7.53h3.2l3,5,3-5h3.11L81.9,43.84v4.95H79.17Z"/><path class="cls-1" d="M86.77,42.61v0a6.61,6.61,0,0,1,13.21,0v0a6.61,6.61,0,0,1-13.21,0Zm10.35,0v0a3.77,3.77,0,0,0-3.76-3.91,3.72,3.72,0,0,0-3.73,3.87v0a3.77,3.77,0,0,0,3.76,3.9A3.71,3.71,0,0,0,97.12,42.61Z"/><path class="cls-1" d="M102.22,43.46v-7.1H105v7c0,2,1,3.08,2.69,3.08s2.68-1,2.68-3V36.36h2.73v7c0,3.77-2.11,5.62-5.45,5.62S102.22,47.12,102.22,43.46Z"/><path class="cls-1" d="M115.84,36.36h5.68a5,5,0,0,1,3.63,1.26,3.91,3.91,0,0,1,1.06,2.84v0a3.85,3.85,0,0,1-2.66,3.85l3,4.44h-3.19l-2.67-4h-2.15v4h-2.73Zm5.5,6c1.34,0,2.1-.71,2.1-1.76v0c0-1.17-.82-1.77-2.15-1.77h-2.72V42.4Z"/><path class="cls-1" d="M127.82,47,129.44,45a5.67,5.67,0,0,0,3.71,1.51c1.12,0,1.8-.44,1.8-1.17v0c0-.7-.43-1.05-2.51-1.58-2.5-.64-4.12-1.34-4.12-3.81v0c0-2.26,1.81-3.75,4.35-3.75a7.22,7.22,0,0,1,4.62,1.58l-1.42,2.06a5.84,5.84,0,0,0-3.23-1.22c-1,0-1.6.48-1.6,1.08v0c0,.81.53,1.08,2.68,1.63,2.52.66,3.94,1.56,3.94,3.73v0c0,2.46-1.88,3.85-4.56,3.85A8,8,0,0,1,127.82,47Z"/><path class="cls-1" d="M140,36.36h9.38v2.43h-6.66v2.52h5.86v2.44h-5.86v2.61h6.75v2.43H140Z"/><path class="cls-1" d="M151.94,36.36h2.73v10h6.2v2.48h-8.93Z"/><path class="cls-1" d="M162.93,36.36h9.47v2.49h-6.73v2.64h5.93V44h-5.93v4.81h-2.74Z"/><path class="cls-1" d="M177.67,36.82v.8h-1.55v4h-1v-4h-1.55v-.8Zm5.22,4.83-.17-2.84c0-.37,0-.84,0-1.35h-.05c-.13.43-.27,1-.41,1.44l-.87,2.68h-1l-.87-2.75c-.09-.38-.23-.94-.34-1.37h0c0,.44,0,.91,0,1.35l-.18,2.84H178l.36-4.83h1.44l.83,2.36c.11.38.2.73.32,1.23h0c.13-.45.23-.85.34-1.21l.83-2.38h1.39l.37,4.83Z"/><path class="cls-2" d="M32.5,65A32.5,32.5,0,1,0,0,32.5,32.56,32.56,0,0,0,32.5,65"/><path class="cls-3" d="M31.13,23.11l-15.32.07L22.3,33.91c0-1.22.34-2.66.36-3.23-.34-.79.63-1.43,1.16-1.6l.9-.36.84-.29a16.59,16.59,0,0,1,5-.61,11.76,11.76,0,0,0,.73-3.22C31.36,24,31.09,23.68,31.13,23.11Z"/><polygon class="cls-3" points="44.7 44.42 44.17 46.87 45.27 46.87 44.74 44.42 44.7 44.42"/><path class="cls-3" d="M29.15,46.84,28.06,45h0a2.05,2.05,0,0,1,1.08.25l.29.49a1.34,1.34,0,0,0-.39-1,1.77,1.77,0,0,0-1.21-.35h-.12v2.84a2,2,0,0,0,1.31-.35A.47.47,0,0,0,29.15,46.84Z"/><path class="cls-3" d="M40.5,25.46c.16.45.47.62.74,1a2,2,0,0,1,.22.32c.57,1,.39,3,.38,4.44,0,.14,0,.28,0,.41a2.06,2.06,0,0,1,.45.59,1.78,1.78,0,0,1,.64.22L48.47,23l-8.8,0A4.64,4.64,0,0,1,40.36,25C40.41,25.18,40.46,25.34,40.5,25.46Z"/><path class="cls-3" d="M41.09,35.55a1.6,1.6,0,0,1-1.16-1.73,1.64,1.64,0,0,1,.83-1.17c-.11-.06-.27.07-.37.14.12-.23.16-.44.38-.59a1.14,1.14,0,0,0,.37-.35,11.93,11.93,0,0,0-1.32-2.35A3.65,3.65,0,0,1,39,27.1l.52,0a1.91,1.91,0,0,1-1.17-.71,5.54,5.54,0,0,1-1-2.21,9.7,9.7,0,0,1-1.85,2.26c-.69,1.32-.27,1.36-.27,1.57A2.57,2.57,0,0,1,35,30.57a3.41,3.41,0,0,1-2.51,1.08,5.1,5.1,0,0,0,1.73-.2A8.22,8.22,0,0,1,33.69,34a11.38,11.38,0,0,0-1,3.83,4.14,4.14,0,0,1,2.8.05c.72.3,1.2.83,2,1.13a6.47,6.47,0,0,0,1.41.38Z"/><path class="cls-3" d="M55.62,40.89a.31.31,0,0,0-.19,0h-.08v.38h0a.41.41,0,0,0,.21,0,.16.16,0,0,0,.07-.15A.15.15,0,0,0,55.62,40.89Z"/><path class="cls-3" d="M56.22,41.28h0a.77.77,0,0,0-.23-.55h0a.77.77,0,0,0-.55-.23h0a.79.79,0,0,0-.55.23.77.77,0,0,0-.23.55h0a.77.77,0,0,0,.23.55.79.79,0,0,0,.55.23h0a.79.79,0,0,0,.78-.78Zm-.57.54-.3-.54v.54h-.23V40.66h.47l.11,0a.32.32,0,0,1,.15.13.33.33,0,0,1,0,.2.37.37,0,0,1-.07.23.37.37,0,0,1-.2.12l.29.45Z"/><rect class="cls-4" x="21.83" y="42.19" width="2.69" height="7.35"/><polygon class="cls-4" points="17.66 42.19 16.6 45.57 16.56 45.57 15.55 42.19 12.83 42.19 11.57 49.54 14.16 49.54 14.6 46.1 15.77 49.54 17.34 49.54 18.52 46.1 18.95 49.54 21.54 49.54 20.38 42.19 17.66 42.19"/><path class="cls-4" d="M56.38,41.28a.94.94,0,0,0-.94-.94h0a.92.92,0,0,0-.66.27,1,1,0,0,0-.28.67h0a.91.91,0,0,0,.28.66.93.93,0,0,0,.66.28h0a1,1,0,0,0,.67-.27.94.94,0,0,0,.27-.67Zm-.16,0a.79.79,0,0,1-.78.78h0a.79.79,0,0,1-.55-.23.77.77,0,0,1-.23-.55h0a.77.77,0,0,1,.23-.55.79.79,0,0,1,.55-.23h0a.77.77,0,0,1,.55.23h0a.77.77,0,0,1,.23.55Z"/><path class="cls-4" d="M55.83,41.25A.37.37,0,0,0,55.9,41a.33.33,0,0,0,0-.2.32.32,0,0,0-.15-.13l-.11,0h-.47v1.16h.23v-.54l.3.54h.27l-.29-.45A.37.37,0,0,0,55.83,41.25Zm-.43,0h0v-.38h.08a.31.31,0,0,1,.19,0,.15.15,0,0,1,.06.13.16.16,0,0,1-.07.15A.41.41,0,0,1,55.4,41.22Z"/><polygon class="cls-4" points="50.65 43.94 49.66 42.17 46.8 42.19 49.26 46.29 49.26 49.54 51.92 49.54 51.92 46.29 54.47 42.19 51.6 42.19 50.65 43.94"/><path class="cls-3" d="M40.77,32.2a1.14,1.14,0,0,0,.37-.35,11.93,11.93,0,0,0-1.32-2.35A3.65,3.65,0,0,1,39,27.1l.52,0a1.91,1.91,0,0,1-1.17-.71,5.54,5.54,0,0,1-1-2.21,9.7,9.7,0,0,1-1.85,2.26c-.69,1.32-.27,1.36-.27,1.57A2.57,2.57,0,0,1,35,30.57a3.41,3.41,0,0,1-2.51,1.08,5.1,5.1,0,0,0,1.73-.2A8.22,8.22,0,0,1,33.69,34a11.38,11.38,0,0,0-1,3.83,4.14,4.14,0,0,1,2.8.05c.72.3,1.2.83,2,1.13a6.47,6.47,0,0,0,1.41.38l2.26-3.84a1.6,1.6,0,0,1-1.16-1.73,1.64,1.64,0,0,1,.83-1.17c-.11-.06-.27.07-.37.14C40.51,32.56,40.55,32.35,40.77,32.2Z"/><path class="cls-3" d="M31.13,23.11l-15.32.07L22.3,33.91c0-1.22.34-2.66.36-3.23-.34-.79.63-1.43,1.16-1.6l.9-.36.84-.29a16.59,16.59,0,0,1,5-.61,11.76,11.76,0,0,0,.73-3.22C31.36,24,31.09,23.68,31.13,23.11Z"/><path class="cls-3" d="M29.15,46.84,28.06,45h0a2.05,2.05,0,0,1,1.08.25l.29.49a1.34,1.34,0,0,0-.39-1,1.77,1.77,0,0,0-1.21-.35h-.12v2.84a2,2,0,0,0,1.31-.35A.47.47,0,0,0,29.15,46.84Z"/><path class="cls-3" d="M40.36,25c0,.2.1.36.14.48.16.45.47.62.74,1a2,2,0,0,1,.22.32c.57,1,.39,3,.38,4.44,0,.14,0,.28,0,.41a2.06,2.06,0,0,1,.45.59,1.78,1.78,0,0,1,.64.22L48.47,23l-8.8,0A4.64,4.64,0,0,1,40.36,25Z"/><path class="cls-4" d="M49.9,22.21h-.72l-9.78.05c.07-.78-.36-1.89-2-1.62l-.54-.25a2.89,2.89,0,0,1-.29-1.66l-.24.05.29-.19a1.83,1.83,0,0,0-.77-3.31,2.11,2.11,0,0,0-2,.85.84.84,0,0,0-.22.64c-.18.19-.39.33-.58.52s-.28.22-.1.31l.17.08c.19.08,0,.11,0,.25a.27.27,0,0,0,0,.17c-.08.07-.13.09-.13.13s0,.08,0,.18c-.15.21-.25.36-.06.58s.61.24.9.35a2.25,2.25,0,0,1-.13.51,2.61,2.61,0,0,0-2.56-.92l.53-.13c-.61-.71-1.39-1.05-3.77-1.74-.59-1.06-2.39-1.25-3.42-1.75-.6-.29-1.28-1.13-1.86-1.45a3.12,3.12,0,0,0-.92-.24,2.89,2.89,0,0,1-1.12-.39c-.15-.1-.34-.35-.54-.28a.16.16,0,0,0-.12.14c0,.29,1.29,1.05,1.62,1.19-.44.09-.61-.38-.95-.25-.13.05-.23.21-.05.3a2.27,2.27,0,0,1,.55.43.89.89,0,0,0,.43.31,8.26,8.26,0,0,0,1,.08,1.35,1.35,0,0,1,.35.19,8.81,8.81,0,0,1,1.1,1,15.41,15.41,0,0,0,1.64,1.78,3.44,3.44,0,0,0,1.42.52,4.91,4.91,0,0,0,2.88,1.75c.5.56.89,1.32,1.4,1.81,0-.07.11-.1.14-.16s0,0,.05.08l-.09.15-16.31.07h-.72l.37.61,7.84,13a9,9,0,0,1,0,3.49c-.75.09-1.75.63-2.56.8s-1.17,0-1.27.28c.06.46.48.37.69.33a5.35,5.35,0,0,0,2,.11,14.89,14.89,0,0,1,1.77.06c.82.14,1.85.25,1.19-1.32a1.26,1.26,0,0,0-.07-1v0l2.1,3.48H25.12v7.35h1.95A13.78,13.78,0,0,0,29,49.43a4,4,0,0,0,1.18-.36,3.6,3.6,0,0,0,1.47-1.33,3.45,3.45,0,0,0,.51-1.87A3.52,3.52,0,0,0,31.64,44a3.66,3.66,0,0,0-1.47-1.33A3.6,3.6,0,0,0,29,42.3a11.72,11.72,0,0,0-1.7-.11l-2.87-4.74c0-.11,0-.21.07-.32.11-.5.23-1,.39-1.53l-.32.23a4.8,4.8,0,0,0,.65-4.51c.92-.25,3,.38,4.5.45a17.52,17.52,0,0,0-.27,2.71,10.17,10.17,0,0,0,.63,4.35c-.06,1.28.74.83,1.22,1,.85.27,1.62.42,2.49.62a17.28,17.28,0,0,0,4.25.28l-.86,1.46H36l-.88,3.55H35l-.74-3.55H31.62l1.84,6.29-1.16,2L31.38,49a4.14,4.14,0,0,1-.64.52l1.22,2,.35.58.35-.59,1.12-1.93h2.29l.76-2.84h.1l.75,2.84H40l2.15-7.35H39.49l-.74,3.55h-.07l-.77-3.17L39,40.71h.78c.69.15,1.66.63,2.44.77a7.35,7.35,0,0,0,1.13.17c.61,0,1.21.12,1.64.14.17,0,.58.09.51-.2s-.22-.34-.87-.64a2.33,2.33,0,0,0-1.35-.54,4.12,4.12,0,0,0-.92.1l.36-.19c-.33-.29-.62-.77-.95-1a.73.73,0,0,0-1.05,0,3.2,3.2,0,0,1-1,.17L42,35.61A2.16,2.16,0,0,0,43.14,35a1.66,1.66,0,0,0,.39-2s0,0,0,0l6-10.21ZM27.74,44.45h.12a1.77,1.77,0,0,1,1.21.35,1.34,1.34,0,0,1,.39,1l-.29-.49A2.05,2.05,0,0,0,28.09,45h0l1.09,1.81a.47.47,0,0,1-.1.1,2,2,0,0,1-1.31.35ZM30.6,27.82a16.59,16.59,0,0,0-5,.61l-.84.29-.9.36c-.53.17-1.5.81-1.16,1.6,0,.57-.32,2-.36,3.23L15.81,23.18l15.32-.07c0,.57.23.93.2,1.49A11.76,11.76,0,0,1,30.6,27.82Zm10.16,4.83a1.64,1.64,0,0,0-.83,1.17,1.6,1.6,0,0,0,1.16,1.73l-2.26,3.84A6.47,6.47,0,0,1,37.42,39c-.77-.3-1.25-.83-2-1.13a4.14,4.14,0,0,0-2.8-.05,11.38,11.38,0,0,1,1-3.83,8.22,8.22,0,0,0,.49-2.55,5.1,5.1,0,0,1-1.73.2A3.41,3.41,0,0,0,35,30.57,2.57,2.57,0,0,0,35.17,28c0-.21-.42-.25.27-1.57a9.7,9.7,0,0,0,1.85-2.26,5.54,5.54,0,0,0,1,2.21,1.91,1.91,0,0,0,1.17.71l-.52,0a3.65,3.65,0,0,0,.85,2.4,11.93,11.93,0,0,1,1.32,2.35,1.14,1.14,0,0,1-.37.35c-.22.15-.26.36-.38.59C40.49,32.72,40.65,32.59,40.76,32.65Zm2.18-.23a1.78,1.78,0,0,0-.64-.22,2.06,2.06,0,0,0-.45-.59c0-.13,0-.27,0-.41,0-1.4.19-3.41-.38-4.44a2,2,0,0,0-.22-.32c-.27-.36-.58-.53-.74-1,0-.12-.09-.28-.14-.48a4.64,4.64,0,0,0-.69-1.91l8.8,0Z"/><path class="cls-4" d="M43.28,42.19l-2.62,7.35H43.5l.23-.93h2l.24.93H48.8l-2.57-7.35Zm.89,4.67.53-2.44h0l.53,2.44Z"/></svg>