<svg id="Layer_1" data-name="Layer 1" xmlns="http://www.w3.org/2000/svg" viewBox="0 0 155.57 55"><defs><style>.cls-1{fill:#a6a8ab;}.cls-2{fill:red;fill-rule:evenodd;}.cls-3{fill:none;}.cls-4{fill:#fff;}</style></defs><title>logo-midway</title><path class="cls-1" d="M64.12,14.56H69a3.8,3.8,0,0,1,2.75.93,2.42,2.42,0,0,1,.72,1.79v0a2.44,2.44,0,0,1-1.38,2.27,2.56,2.56,0,0,1,2,2.58v0c0,1.93-1.56,2.89-3.94,2.89h-5Zm4.39,4.25c1,0,1.66-.33,1.66-1.11v0c0-.69-.54-1.08-1.51-1.08H66.37v2.22Zm.61,4.24c1,0,1.64-.36,1.64-1.14v0c0-.71-.53-1.14-1.71-1.14H66.37v2.31Z" transform="translate(-1.17 -1.02)"/><path class="cls-1" d="M74.8,20.57v-6h2.31v6c0,1.71.86,2.6,2.27,2.6s2.27-.86,2.27-2.52v-6H84V20.5c0,3.18-1.79,4.75-4.62,4.75S74.8,23.67,74.8,20.57Z" transform="translate(-1.17 -1.02)"/><path class="cls-1" d="M86.43,14.56h2.31V25.08H86.43Z" transform="translate(-1.17 -1.02)"/><path class="cls-1" d="M91.37,14.56h2.32V23h5.24v2.1H91.37Z" transform="translate(-1.17 -1.02)"/><path class="cls-1" d="M100.67,14.56h4.11a5.25,5.25,0,0,1,5.59,5.23v0a5.27,5.27,0,0,1-5.59,5.26h-4.11ZM104.78,23A3,3,0,0,0,108,19.85v0a3,3,0,0,0-3.17-3.17H103V23Z" transform="translate(-1.17 -1.02)"/><path class="cls-1" d="M68.16,38.16l-4-6.37h2.7L69.33,36l2.56-4.22h2.63l-4,6.33v4.19H68.16Z" transform="translate(-1.17 -1.02)"/><path class="cls-1" d="M74.59,37.08v0a5.59,5.59,0,0,1,11.18,0v0a5.59,5.59,0,0,1-11.18,0Zm8.76,0v0a3.2,3.2,0,0,0-3.18-3.31A3.15,3.15,0,0,0,77,37v0a3.2,3.2,0,0,0,3.19,3.31A3.15,3.15,0,0,0,83.35,37.08Z" transform="translate(-1.17 -1.02)"/><path class="cls-1" d="M87.66,37.8v-6H90v6c0,1.71.85,2.6,2.27,2.6s2.27-.85,2.27-2.52v-6h2.31v5.94c0,3.18-1.79,4.75-4.61,4.75S87.66,40.9,87.66,37.8Z" transform="translate(-1.17 -1.02)"/><path class="cls-1" d="M99.19,31.79H104a4.15,4.15,0,0,1,3.06,1.07,3.27,3.27,0,0,1,.91,2.4v0a3.26,3.26,0,0,1-2.26,3.26l2.57,3.76h-2.7l-2.26-3.37H101.5v3.37H99.19Zm4.66,5.11c1.12,0,1.77-.6,1.77-1.49v0c0-1-.69-1.5-1.82-1.5h-2.3v3Z" transform="translate(-1.17 -1.02)"/><path class="cls-1" d="M109.33,40.78l1.37-1.64a4.82,4.82,0,0,0,3.14,1.28c1,0,1.52-.38,1.52-1v0c0-.59-.36-.89-2.12-1.34-2.12-.54-3.49-1.13-3.49-3.22v0c0-1.91,1.53-3.17,3.68-3.17A6.07,6.07,0,0,1,117.34,33l-1.2,1.74a4.91,4.91,0,0,0-2.74-1c-.88,0-1.35.41-1.35.92v0c0,.69.45.92,2.27,1.38,2.13.56,3.34,1.33,3.34,3.16v0c0,2.09-1.6,3.26-3.87,3.26A6.67,6.67,0,0,1,109.33,40.78Z" transform="translate(-1.17 -1.02)"/><path class="cls-1" d="M119.67,31.79h7.93v2.06H122V36h5V38h-5v2.21h5.71v2.06h-8Z" transform="translate(-1.17 -1.02)"/><path class="cls-1" d="M129.74,31.79h2.31v8.42h5.25v2.1h-7.56Z" transform="translate(-1.17 -1.02)"/><path class="cls-1" d="M139,31.79h8v2.1h-5.7v2.24h5v2.11h-5v4.07H139Z" transform="translate(-1.17 -1.02)"/><path class="cls-1" d="M151.51,32.18v.68H150.2v3.41h-.81V32.86h-1.31v-.68Zm4.42,4.09-.15-2.41c0-.31,0-.7,0-1.14h-.05c-.1.36-.22.84-.34,1.22l-.74,2.27h-.84L153,33.88c-.07-.32-.19-.8-.28-1.16h0c0,.38,0,.77,0,1.14l-.15,2.41h-.78l.3-4.09h1.22l.7,2c.09.31.17.62.27,1h0c.1-.38.19-.73.28-1l.71-2h1.17l.32,4.09Z" transform="translate(-1.17 -1.02)"/><path class="cls-2" d="M28.67,56a27.5,27.5,0,1,0-27.5-27.5A27.55,27.55,0,0,0,28.67,56" transform="translate(-1.17 -1.02)"/><path class="cls-3" d="M27.52,20.58l-13,.06L20,29.72c0-1,.29-2.26.3-2.74-.29-.66.54-1.21,1-1.35l.76-.3.71-.25a13.57,13.57,0,0,1,4.26-.51,9.72,9.72,0,0,0,.62-2.73C27.71,21.37,27.47,21.06,27.52,20.58Z" transform="translate(-1.17 -1.02)"/><polygon class="cls-3" points="37.82 37.58 37.37 39.66 38.3 39.66 37.86 37.58 37.82 37.58"/><path class="cls-3" d="M25.84,40.66l-.92-1.53h0a1.68,1.68,0,0,1,.91.21l.25.41a1.11,1.11,0,0,0-.33-.82,1.53,1.53,0,0,0-1-.3h-.09V41a1.66,1.66,0,0,0,1.1-.3Z" transform="translate(-1.17 -1.02)"/><path class="cls-3" d="M35.44,22.57c.14.38.39.52.63.82a1.86,1.86,0,0,1,.18.28c.49.87.33,2.57.33,3.75v.35a1.62,1.62,0,0,1,.38.5,1.71,1.71,0,0,1,.54.18l4.68-7.93-7.44,0a3.78,3.78,0,0,1,.58,1.61Z" transform="translate(-1.17 -1.02)"/><path class="cls-3" d="M35.94,31.11a1.37,1.37,0,0,1-1-1.47,1.44,1.44,0,0,1,.7-1c-.09,0-.23.06-.31.12.1-.2.13-.38.32-.5A.75.75,0,0,0,36,28a10.76,10.76,0,0,0-1.11-2,3,3,0,0,1-.72-2l.43,0a1.65,1.65,0,0,1-1-.6,4.59,4.59,0,0,1-.87-1.87,8.93,8.93,0,0,1-1.57,1.91c-.59,1.12-.23,1.15-.23,1.33a2.18,2.18,0,0,1-.18,2.18,2.91,2.91,0,0,1-2.12.92,4.28,4.28,0,0,0,1.46-.18,6.82,6.82,0,0,1-.41,2.16A9.77,9.77,0,0,0,28.8,33a3.53,3.53,0,0,1,2.37,0c.6.25,1,.7,1.67,1a5.34,5.34,0,0,0,1.19.33Z" transform="translate(-1.17 -1.02)"/><path class="cls-3" d="M48.23,35.62a.28.28,0,0,0-.15,0H48v.31h0a.29.29,0,0,0,.17,0,.14.14,0,0,0,.06-.12A.13.13,0,0,0,48.23,35.62Z" transform="translate(-1.17 -1.02)"/><path class="cls-3" d="M48.74,36h0a.64.64,0,0,0-.19-.46h0a.65.65,0,0,0-.47-.19h0a.64.64,0,0,0-.46.19.7.7,0,0,0-.2.46h0a.7.7,0,0,0,.2.46.64.64,0,0,0,.46.19h0a.65.65,0,0,0,.65-.66Zm-.48.46L48,36v.46h-.19v-1h.4l.09,0a.24.24,0,0,1,.13.11.27.27,0,0,1,0,.16.34.34,0,0,1-.06.2.32.32,0,0,1-.17.1l.25.38Z" transform="translate(-1.17 -1.02)"/><rect class="cls-4" x="18.47" y="35.7" width="2.27" height="6.22"/><polygon class="cls-4" points="14.94 35.7 14.05 38.56 14.01 38.56 13.16 35.7 10.85 35.7 9.79 41.91 11.99 41.91 12.35 39.01 13.35 41.91 14.68 41.91 15.67 39.01 16.04 41.91 18.23 41.91 17.24 35.7 14.94 35.7"/><path class="cls-4" d="M48.88,36a.79.79,0,0,0-.23-.56.84.84,0,0,0-.57-.23h0a.79.79,0,0,0-.79.79h0a.83.83,0,0,0,.23.56.79.79,0,0,0,.56.23h0a.79.79,0,0,0,.79-.8Zm-.14,0a.65.65,0,0,1-.65.66h0a.64.64,0,0,1-.46-.19.7.7,0,0,1-.2-.46h0a.7.7,0,0,1,.2-.46.64.64,0,0,1,.46-.19h0a.65.65,0,0,1,.47.19h0a.64.64,0,0,1,.19.46Z" transform="translate(-1.17 -1.02)"/><path class="cls-4" d="M48.41,35.93a.34.34,0,0,0,.06-.2.27.27,0,0,0,0-.16.24.24,0,0,0-.13-.11l-.09,0h-.4v1H48V36l.26.46h.23L48.24,36A.32.32,0,0,0,48.41,35.93Zm-.36,0h0v-.31h.08a.28.28,0,0,1,.15,0,.13.13,0,0,1,.05.12.14.14,0,0,1-.06.12A.29.29,0,0,1,48.05,35.9Z" transform="translate(-1.17 -1.02)"/><polygon class="cls-4" points="42.85 37.18 42.02 35.68 39.6 35.7 41.68 39.17 41.68 41.91 43.94 41.91 43.94 39.17 46.09 35.7 43.66 35.7 42.85 37.18"/><path class="cls-3" d="M35.67,28.27A.75.75,0,0,0,36,28a10.76,10.76,0,0,0-1.11-2,3,3,0,0,1-.72-2l.43,0a1.65,1.65,0,0,1-1-.6,4.59,4.59,0,0,1-.87-1.87,8.93,8.93,0,0,1-1.57,1.91c-.59,1.12-.23,1.15-.23,1.33a2.18,2.18,0,0,1-.18,2.18,2.91,2.91,0,0,1-2.12.92,4.28,4.28,0,0,0,1.46-.18,6.82,6.82,0,0,1-.41,2.16A9.77,9.77,0,0,0,28.8,33a3.53,3.53,0,0,1,2.37,0c.6.25,1,.7,1.67,1a5.34,5.34,0,0,0,1.19.33l1.91-3.25a1.37,1.37,0,0,1-1-1.47,1.44,1.44,0,0,1,.7-1c-.09,0-.23.06-.31.12C35.45,28.57,35.48,28.39,35.67,28.27Z" transform="translate(-1.17 -1.02)"/><path class="cls-3" d="M27.52,20.58l-13,.06L20,29.72c0-1,.29-2.26.3-2.74-.29-.66.54-1.21,1-1.35l.76-.3.71-.25a13.57,13.57,0,0,1,4.26-.51,9.72,9.72,0,0,0,.62-2.73C27.71,21.37,27.47,21.06,27.52,20.58Z" transform="translate(-1.17 -1.02)"/><path class="cls-3" d="M25.84,40.66l-.92-1.53h0a1.68,1.68,0,0,1,.91.21l.25.41a1.11,1.11,0,0,0-.33-.82,1.53,1.53,0,0,0-1-.3h-.09V41a1.66,1.66,0,0,0,1.1-.3Z" transform="translate(-1.17 -1.02)"/><path class="cls-3" d="M35.32,22.16l.12.41c.14.38.39.52.63.82a1.86,1.86,0,0,1,.18.28c.49.87.33,2.57.33,3.75v.35a1.62,1.62,0,0,1,.38.5,1.71,1.71,0,0,1,.54.18l4.68-7.93-7.44,0A3.78,3.78,0,0,1,35.32,22.16Z" transform="translate(-1.17 -1.02)"/><path class="cls-4" d="M43.39,19.82h-.6l-8.28,0c.06-.66-.3-1.6-1.69-1.37l-.46-.21a2.57,2.57,0,0,1-.25-1.41l-.2.05.25-.17A1.54,1.54,0,0,0,31.51,14a1.77,1.77,0,0,0-1.72.71.79.79,0,0,0-.18.55l-.49.43c-.11.1-.24.19-.08.26l.14.07c.16.08,0,.1,0,.21a.27.27,0,0,0,0,.15c-.07.06-.11.08-.11.11s0,.07,0,.15-.21.31,0,.49.52.21.77.3a2.09,2.09,0,0,1-.11.43A2.22,2.22,0,0,0,27.52,17l.45-.11c-.52-.6-1.18-.88-3.19-1.47-.5-.9-2-1.06-2.9-1.48-.5-.25-1.08-1-1.57-1.23a2.49,2.49,0,0,0-.78-.2,2.41,2.41,0,0,1-.94-.33c-.13-.09-.29-.29-.47-.24a.15.15,0,0,0-.09.13c0,.23,1.09.88,1.37,1-.38.08-.52-.33-.81-.22-.11,0-.19.18,0,.26a2.07,2.07,0,0,1,.47.37.78.78,0,0,0,.36.26,5.9,5.9,0,0,0,.83.06,1.71,1.71,0,0,1,.29.16,7.67,7.67,0,0,1,.94.86,11.66,11.66,0,0,0,1.39,1.51,2.79,2.79,0,0,0,1.2.44,4.2,4.2,0,0,0,2.43,1.49c.43.47.76,1.11,1.19,1.52,0-.05.09-.08.12-.13s0,0,0,.07a.83.83,0,0,0-.07.13L13.93,20h-.61l.32.52,6.63,11a7.63,7.63,0,0,1,0,2.95c-.64.09-1.49.54-2.17.68s-1,0-1.07.24.4.31.58.28a4.58,4.58,0,0,0,1.65.1,9.24,9.24,0,0,1,1.49.05c.7.12,1.57.2,1-1.13a1,1,0,0,0-.06-.82h0l1.78,2.94h-1v6.22h1.64a11.61,11.61,0,0,0,1.63-.09,3.6,3.6,0,0,0,1-.3,3,3,0,0,0,1.24-1.13,2.91,2.91,0,0,0,.43-1.59,3,3,0,0,0-.43-1.59,3,3,0,0,0-2.23-1.42,8.54,8.54,0,0,0-1.44-.1l-2.43-4,.06-.27q.13-.63.33-1.29l-.27.19a4.06,4.06,0,0,0,.55-3.81c.78-.22,2.56.32,3.8.38a16,16,0,0,0-.22,2.29,8.5,8.5,0,0,0,.53,3.68c-.05,1.09.63.71,1,.85.72.23,1.38.35,2.11.52a15,15,0,0,0,3.6.24l-.73,1.23h-1l-.74,3H30.8l-.63-3H27.92l1.56,5.33-1,1.68-.77-1.29a3,3,0,0,1-.55.44l1,1.7.3.5.3-.5,1-1.64h1.93l.65-2.4h.08l.64,2.4H35l1.82-6.22H34.58l-.62,3H33.9L33.25,37l.92-1.57h.66c.59.12,1.4.53,2.07.64a6.06,6.06,0,0,0,1,.15c.52,0,1,.1,1.39.12.14,0,.49.07.43-.18s-.19-.28-.73-.53a2,2,0,0,0-1.15-.46,3.53,3.53,0,0,0-.78.09l.31-.17c-.28-.24-.52-.65-.81-.88a.62.62,0,0,0-.88,0,2.68,2.68,0,0,1-.83.15l1.91-3.26a1.74,1.74,0,0,0,1-.49A1.39,1.39,0,0,0,38,29l0,0,5.1-8.65ZM24.65,38.63h.09a1.53,1.53,0,0,1,1,.3,1.11,1.11,0,0,1,.33.82l-.25-.41a1.68,1.68,0,0,0-.91-.21h0l.92,1.53-.09.08a1.66,1.66,0,0,1-1.1.3Zm2.41-14.06a13.57,13.57,0,0,0-4.26.51l-.71.25-.76.3c-.45.14-1.28.69-1,1.35,0,.48-.26,1.71-.3,2.74l-5.49-9.08,13-.06c-.05.48.19.79.16,1.26A9.72,9.72,0,0,1,27.06,24.57Zm8.6,4.08a1.44,1.44,0,0,0-.7,1,1.37,1.37,0,0,0,1,1.47L34,34.36A5.34,5.34,0,0,1,32.84,34c-.66-.25-1.07-.7-1.67-1a3.53,3.53,0,0,0-2.37,0,9.77,9.77,0,0,1,.88-3.25,6.82,6.82,0,0,0,.41-2.16,4.28,4.28,0,0,1-1.46.18,2.91,2.91,0,0,0,2.12-.92,2.18,2.18,0,0,0,.18-2.18c0-.18-.36-.21.23-1.33a8.93,8.93,0,0,0,1.57-1.91,4.59,4.59,0,0,0,.87,1.87,1.65,1.65,0,0,0,1,.6l-.43,0a3,3,0,0,0,.72,2A10.76,10.76,0,0,1,36,28a.75.75,0,0,1-.31.3c-.19.12-.22.3-.32.5C35.43,28.71,35.57,28.6,35.66,28.65Zm1.84-.2a1.71,1.71,0,0,0-.54-.18,1.62,1.62,0,0,0-.38-.5v-.35c0-1.18.16-2.88-.33-3.75a1.86,1.86,0,0,0-.18-.28c-.24-.3-.49-.44-.63-.82l-.12-.41a3.78,3.78,0,0,0-.58-1.61l7.44,0Z" transform="translate(-1.17 -1.02)"/><path class="cls-4" d="M37.8,36.72l-2.22,6.22H38l.19-.78h1.69l.2.78h2.4l-2.17-6.22Zm.74,4L39,38.61h0l.45,2.07Z" transform="translate(-1.17 -1.02)"/></svg>