<svg id="Camada_1" data-name="Camada 1" xmlns="http://www.w3.org/2000/svg" viewBox="0 0 80 44.69"><defs><style>.cls-1{fill:#fff;}</style></defs><title>made-in-usa2</title><g id="Symbols"><g id="Menu"><path id="Fill-1" class="cls-1" d="M46.51,36.61h0Zm12.67-5.27a2.43,2.43,0,0,0-.94-.38c-.39-.13-.79-.24-1.17-.41-.21-.09-.4-.09-.61-.17s-.43-.19-.65-.27c-.66-.24-1.33-.47-2-.7a12.07,12.07,0,0,0-1.88-.56.92.92,0,0,0-.39,0c-.14,0-.18.33-.22.45a1.3,1.3,0,0,1-.31.49c-.11.1-.52.39-.6.11a1.9,1.9,0,0,1,0-.39c0-.35-.21-1-.65-.87s-.28.32-.29.6-.11.88-.49,1-.28-.34-.32-.55a.79.79,0,0,0-.45-.63c-.28-.1-.63-.07-.72-.41-.17-.59-.85-.69-1.38-.73a11.76,11.76,0,0,0-1.2,0c-.34,0-.9-.2-1,.25a2.86,2.86,0,0,0-2.11-.73h-.68c-.2,0-.5,0-.74,0h-.12l-.83,0h-.65l-.83,0h0l-.73,0h0l-.83,0-.78,0a3,3,0,0,0-.63.12l-.29.07a5.37,5.37,0,0,1-1.16.1H33a8.25,8.25,0,0,0-1,.1c-.15,0-.52.1-.54.29s0,.22,0,.34a.6.6,0,0,1-.36.55c-.15.07-.36.11-.47.23a.47.47,0,0,0,0,.43,3.48,3.48,0,0,0,.21.57c0,.09.06.18,0,.25a.35.35,0,0,1-.27.11,1.07,1.07,0,0,1-.54-.34,1.44,1.44,0,0,1-.23-.26,2.18,2.18,0,0,1-.29-.66,1.49,1.49,0,0,0-.2-.51.66.66,0,0,0-.2-.2c-.09-.05-.19,0-.29,0s-.33,0-.39.18a.52.52,0,0,0,.06.49c.12.17.6.54.28.75s-.69-.21-.86-.38-.31-.21-.45-.33a.61.61,0,0,0-.39-.2,3.16,3.16,0,0,0-.5.13,6,6,0,0,0-1,.27,4.34,4.34,0,0,0-.64.25c-.18.12-.15.3-.16.5-.49-.66-1.44-.28-2.06-.06l-1.1.38a12.09,12.09,0,0,0-1.35.46c-.3.14-.63.26-.91.43s-.09.19,0,.35a11.21,11.21,0,0,1,1,3.29.86.86,0,0,0,0,.13l.06.18a3.65,3.65,0,0,1,.18.67,3.51,3.51,0,0,0,.24.6c.08.2.13.43.22.63.18.37.34.76.52,1.13.09.2.18.56.42.64a.67.67,0,0,0,.36-.05c.26-.08.51-.17.76-.26.45-.16.93-.2,1.37-.4a9.81,9.81,0,0,1,1-.33c.3-.1.62-.17.93-.27a1.14,1.14,0,0,0,.64-.33.91.91,0,0,0,.12-.42c.13.06.12.26.29.3a1.28,1.28,0,0,0,.65-.08,4,4,0,0,1,.65-.14c1.25-.21,2.47-.68,3.74-.8.38,0,.77-.12,1.15-.19s.71-.08,1.06-.13c.7-.09,1.39-.19,2.09-.25s1.4-.13,2.11-.13c.46,0,.94.06,1.41.08.16,0,.2,0,.14,0a16.68,16.68,0,0,1,1.85.15c.3,0,.6.08.9.14.52.1,1.06.24,1.58.3l1.67.18h0a2.68,2.68,0,0,0,.61.1l.66.12L49,37l.82.17h0l.38.09.37.09.75.17a7.47,7.47,0,0,1,.84.23l.11,0,.26.09.37.13a6.78,6.78,0,0,0,.66.17c.4.07.76.27,1.17.33a10.23,10.23,0,0,1,1.39.32c.26.08.67.29.87.05s.3-.75.51-1.06a3.69,3.69,0,0,0,.42-.74.9.9,0,0,0-.07-.81c.11.18.49-.28.54-.33a4,4,0,0,0,.37-.67h0a7.21,7.21,0,0,0,.61-1.91c.06-.31.17-.61.24-.91s.06-.49-.22-.48c0-.09.13-.15.14-.25s-.19-.31-.31-.42Zm-1.32,8.77c.06-.19.19-.51.28-.7a7.49,7.49,0,0,0,.31-.77c.06-.2.19-.52.27-.71l.31-.73.3-.73c.07-.19.21-.5.31-.68a8.33,8.33,0,0,0,.71-2.2,5.38,5.38,0,0,1,.31-.9,5.64,5.64,0,0,0,.42-1.32c.06-.55-.3-.66-.73-.85A8,8,0,0,0,58.75,30c-1.07-.21-1.94-.84-3-1.14-.31-.09-.61-.15-.92-.26s-.86-.37-1.29-.52c-.19-.07-.53-.27-.7-.05a2,2,0,0,0-.11.21c0,.06-.13.13-.1.21s.12.09.18.13c.36.18.73.32,1.1.47l.66.27a5.94,5.94,0,0,0,.65.19l.32.09a8.8,8.8,0,0,1,1.2.48,20.73,20.73,0,0,0,2.95,1h0c.24.08.53.14.44.43a21.43,21.43,0,0,1-.69,2.23c-.33.76-.55,1.56-.87,2.32-.22.51-.37,1-.58,1.52-.09.21-.22.56-.29.77a6.49,6.49,0,0,1-.27.67c-.07.16-.18.56-.35.65l-.08,0a1,1,0,0,1-.37-.06c-.33-.11-.61-.31-.94-.42L55,39h0c-.26-.1-.5-.24-.75-.33s-.67-.16-1-.26c-.7-.22-1.37-.5-2.08-.68a20.8,20.8,0,0,0-3.09-.54,6.92,6.92,0,0,1-.72-.11l-.8-.15h0c-.22,0-.59-.07-.81-.09a5,5,0,0,1-.7-.11,5.21,5.21,0,0,0-.56-.06l-.73-.09c-.49,0-1-.08-1.46-.17s-1-.19-1.48-.24-.92-.13-1.38-.16h-.5c-.69,0-1.4.06-2.08.13a9.17,9.17,0,0,0-1.4.18h0l-2.53.35h0c-.45.09-.9.13-1.35.19a9,9,0,0,0-1.91.45,5,5,0,0,1-.86.19c-.26,0-.52.09-.79.16-.92.24-1.79.55-2.63.85l-.7.25L24,39c-.19.07-.51.16-.71.21a7.15,7.15,0,0,0-.81.25c-.22.09-.46.31-.68.12a1.58,1.58,0,0,1-.28-.53h0a7.1,7.1,0,0,1-.29-.67h0L20.68,37c-.15-.39-.2-.82-.32-1.22S20.13,35,20,34.68s-.19-.65-.29-1-.35-.78-.5-1.17A4.7,4.7,0,0,0,19,32a1,1,0,0,1-.15-.4c0-.25.26-.28.44-.35a4.37,4.37,0,0,0,.5-.25,2.24,2.24,0,0,1,.41-.2l.56-.14c.26-.06.53-.12.8-.21l1.1-.38a22.65,22.65,0,0,1,3.11-.92c.17,0,.34-.1.51-.14a1.12,1.12,0,0,0,.2-.06c.1,0,.13-.1.06-.19s-.1-.18-.17-.26a.37.37,0,0,0-.22-.17,1.85,1.85,0,0,0-.52.08,35.68,35.68,0,0,0-4.3,1.32c-.44.15-.9.21-1.35.35a10.83,10.83,0,0,0-1,.47c-.4.16-1,.37-1,.87a.71.71,0,0,0,0,.11,9,9,0,0,0,.75,1.78,7.63,7.63,0,0,1,.56,2.05c0,.35.28.8.28,1.12l.32.73c.09.19.22.51.3.7l.27.73a7.91,7.91,0,0,0,.32.76,6.23,6.23,0,0,1,.29.7.66.66,0,0,0,.92.39c.19-.09.52-.24.71-.31a6.3,6.3,0,0,1,.7-.22c.22-.05.57-.15.78-.23l.74-.25c1.11-.38,2.15-.78,3.28-1.08.57-.15,1.15-.17,1.71-.37a9.5,9.5,0,0,1,3-.58,15.23,15.23,0,0,0,1.59-.32c.55-.08,1.08-.12,1.63-.16a26.5,26.5,0,0,1,3.27-.18,15.21,15.21,0,0,1,2.19.47,11.67,11.67,0,0,0,1.79.08l.78,0a4.85,4.85,0,0,1,.72.11,5.57,5.57,0,0,0,.83.13l.75.08.75.14A7.72,7.72,0,0,0,48,38l.75.1.74.16.76.19.78.18a6,6,0,0,1,.71.2l.75.25a7.38,7.38,0,0,0,.8.2,5.13,5.13,0,0,1,.7.2l.72.29.76.28c.19.06.52.18.71.26l.76.29a.69.69,0,0,0,.54,0,.7.7,0,0,0,.36-.41Zm6.37-3.38a1.62,1.62,0,0,0-.37-.28l-.56-.27a1,1,0,0,0-.44-.14c-.08,0-.15.08-.22.1.07-.42-.44-.52-.73-.67-.13-.06-.18,0-.25.06l-.28.44a9.39,9.39,0,0,0-.63.93c-.22.49-.36,1-.57,1.51-.08.21-.22.4-.3.6s-.2.39-.11.55c-.23.08-.18.27-.26.45s-.23.41,0,.53c-.14.08-.23.06-.31.21s-.13.31-.2.46a1.34,1.34,0,0,0-.14.42.6.6,0,0,0,.21.16,6.2,6.2,0,0,1,.61.48,2.81,2.81,0,0,0,.33.23h0c.26.16.51.34.77.49l.09,0c.17,0,.11-.39.11-.53s0-.24,0-.33S61,42,61,42a1.86,1.86,0,0,0-.2-.62.93.93,0,0,0-.19-.28c.06,0,.22.09.28,0s.07-.54.06-.7,0-.55,0-.81-.19-.58,0-.8a2,2,0,0,1,.54-.3c.31-.17.65-.29,1-.45.61-.33,1.27-.54,1.9-.84.06,0,.27-.1.27-.17s-.22-.21-.28-.28Zm1.09-.53a5.92,5.92,0,0,0-.86-.56,6,6,0,0,1-.91-.44c-.26-.15-.51-.29-.78-.42-.42-.2-.87-.63-1.38-.59-.34,0-.6.4-.83.85s-.35.81-.5,1.12a12.37,12.37,0,0,0-.7,1.66,14.85,14.85,0,0,1-.79,1.78c-.18.4-.38.8-.55,1.2s-.29.75-.44,1.13,0,.37.15.47a4.55,4.55,0,0,0,.61.26,9,9,0,0,1,1.13.73,3.79,3.79,0,0,1,.38.25,2.88,2.88,0,0,0,.38.25,2.88,2.88,0,0,1,.38.25l.37.28c.2.14.47.56.78.08a2.2,2.2,0,0,0,.19-1,5.73,5.73,0,0,0,0-.65c0-.17,0-.46,0-.64s0-.47,0-.64,0-.46,0-.64,0-.46,0-.63,0-.45,0-.61a.46.46,0,0,1,.22-.42l.49-.25a4.94,4.94,0,0,1,.5-.24l.5-.2.5-.23.5-.25.5-.2c.35-.12,1.23-.23,1.08-1-.09-.44-.56-.56-.85-.73Zm-.17.87c0,.16-.74.28-.87.35l-.53.26-.44.2h0c-.68.27-1.31.65-2,.93-.16.06-.24.09-.28.24a1.17,1.17,0,0,0,.07.53c0,.25.06.53.08.79s0,.41,0,.57c0,.37,0,.76,0,1.13,0,.16-.05.32-.08.48a7,7,0,0,0,0,.91l-.12,0a3.71,3.71,0,0,1-.77-.5c-.31-.22-.65-.4-1-.59a3.06,3.06,0,0,1-.71-.41c-.2-.24.05-.58.15-.82s.2-.43.3-.66l.25-.53c.08-.18.17-.36.27-.56A8,8,0,0,0,60.11,38a10,10,0,0,1,.57-1.38l.08-.17c.07-.14.13-.3.21-.47a2.8,2.8,0,0,1,.54-1c.18-.14.27,0,.44.13.39.27.83.45,1.24.7a6.71,6.71,0,0,0,1,.49.83.83,0,0,1,.17.1l.18.13c.08.06.63.41.61.5Zm-44.07,4.4c-.06-.18-.17-.48-.24-.66-.13-.34-.3-.66-.43-1l-.19-.47a5.66,5.66,0,0,1-.31-.79,4.08,4.08,0,0,0-.34-.94,4.7,4.7,0,0,1-.28-.94,3.19,3.19,0,0,0-.19-.47c-.18-.42-.31-.89-.45-1.3-.28-.81-.58-1.34-1.38-.68a3.55,3.55,0,0,1-.89.51c-.31.13-.6.27-.91.38l-.9.36c-.24.09-.45.28-.68.39a4.62,4.62,0,0,0-.43.25,2.23,2.23,0,0,0-.41.21c-.17.17-.05.61.12.86a1.25,1.25,0,0,0,.67.41,4.39,4.39,0,0,1,.49.22l.49.26.49.23.49.24.49.28.48.28a.43.43,0,0,1,.18.43c0,.16-.07.45-.09.63a15.27,15.27,0,0,0,0,1.69,5.3,5.3,0,0,0,.12,1.23c.07.25.11.82.32,1s.53-.11.71-.19c.35-.17.73-.23,1.07-.42l.42-.23.43-.2.44-.18a2.45,2.45,0,0,1,.46-.13,2,2,0,0,0,.45-.14.35.35,0,0,0,.1-.43l-.23-.67Zm-.78.53a3.69,3.69,0,0,1-.73.32h0l-.5.23c-.37.2-.75.38-1.14.55-.15.07-.23.09-.27-.06v0c0-.11,0-.24,0-.34,0-.4-.12-.77-.12-1.18s0-.81.05-1.23c0-.15,0-.4.07-.54s.09-.56.14-.84h0c-.09-.18-.38-.25-.54-.33s-.4-.22-.6-.34h0l-.5-.29h0l-.55-.27-.45-.21-.47-.25a4,4,0,0,0-.68-.27c-.35-.11,0-.26.2-.35a3.27,3.27,0,0,0,.4-.23l.12-.08.12-.06c.78-.31,1.57-.59,2.35-.9h0c.12-.06.54-.32.68-.26s.24.46.28.6c.1.3.2.59.32.87l.06.14a1.43,1.43,0,0,1,.09.23l.06.24a3.6,3.6,0,0,0,.28.85,3.35,3.35,0,0,1,.28.77,3.72,3.72,0,0,0,.26.68l.09.21.06.15.13.31c.07.18.15.35.23.52s.14.32.21.48.41.75.17.92Zm-.65-1.18a.82.82,0,0,0-.45-.51c.06,0,.13,0,.17-.1s-.06-.41-.1-.53-.14-.46-.21-.69a11.41,11.41,0,0,0-.46-1.35c-.29-.67-.59-1.34-.82-2l-.12-.36v0a4.89,4.89,0,0,1-.89.47l-.27.11c-.19.08-.36.19-.55.27a4.72,4.72,0,0,0-.64.29l-.34.22c-.06,0-.2.08-.23.15s.11.16.19.21l.71.4c.22.11.44.19.64.32h0c.47.31,1,.62,1.47.9.29.17.24.32.2.63-.07.52-.11,1-.14,1.57,0,.27,0,.54,0,.81s.08.56.09.84c0,.08,0,.2,0,.27s.36-.05.46-.11a5.06,5.06,0,0,1,.67-.34c.17-.07.35-.11.52-.18s.42-.17.36-.47a5.5,5.5,0,0,0-.26-.76Zm-1-30.62c-.32-.11-.63-.26-.95-.37a44.34,44.34,0,0,1-4.57-2,6.86,6.86,0,0,0,.91.9c.13.11.31.2.47.31a9.52,9.52,0,0,0,1,.6,4.26,4.26,0,0,1,.41.24,3.51,3.51,0,0,1,.45.32,4.21,4.21,0,0,1-1-.39c-.45-.21-.83-.43-1.23-.64A1.92,1.92,0,0,1,13.76,9l-.86-.73c-.08-.07-.15-.12-.24-.21a6.17,6.17,0,0,0,.47,1,5,5,0,0,0,.33.59c.1.14.26.26.31.43a.85.85,0,0,1-.31-.16,6.17,6.17,0,0,1-.85-.74,7.2,7.2,0,0,1-1.12-1.49,9.89,9.89,0,0,1-.73-1.27c-.07-.16-.12-.32-.19-.49a11.79,11.79,0,0,1-.5-1.21c0-.16,0-.28-.09-.44s-.12-.48.06-.39.36.36.54.53.39.28.56.44a18.07,18.07,0,0,0,2.24,1.79l1.19.83c.78.55,1.66,1,2.5,1.53a11.69,11.69,0,0,0,1.34.67c.61.29,1.24.58,1.86.83a.8.8,0,0,1,.43.24,5.81,5.81,0,0,1-1-.24c-.34-.11-.7-.17-1-.29ZM60.14,6.45c.26-.09.51-.21.76-.3a35.9,35.9,0,0,0,3.7-1.63,5.48,5.48,0,0,1-.74.73c-.11.09-.24.2-.37.29a8,8,0,0,1-.8.45l-.4.23c-.1.05-.26.08-.29.22a2.11,2.11,0,0,0,.83-.31,4.74,4.74,0,0,0,1-.52c.25-.2.38-.32.46-.39A3.83,3.83,0,0,1,65,4.67a3.17,3.17,0,0,1-.38.84,4,4,0,0,1-.27.47c-.08.12-.16.19-.25.35a1.6,1.6,0,0,0,.25-.13A4.53,4.53,0,0,0,65,5.66a6.19,6.19,0,0,0,.9-1.26,7.92,7.92,0,0,0,.59-1c.06-.13.09-.26.15-.39a9.56,9.56,0,0,0,.41-1c0-.13,0-.23.07-.36s.1-.39,0-.31-.29.29-.44.43-.31.23-.45.36a14.66,14.66,0,0,1-1.81,1.45l-1,.67c-.63.44-1.34.8-2,1.24A9.43,9.43,0,0,1,60.32,6c-.5.23-1,.47-1.5.67a.67.67,0,0,0-.35.2,4.7,4.7,0,0,0,.84-.2c.28-.09.56-.14.83-.23ZM.69,2.51a10.06,10.06,0,0,0,1,1.86A28.87,28.87,0,0,0,4.52,8.21c.25.28.54.57.83.84a15.37,15.37,0,0,0,1.87,1.71,4.79,4.79,0,0,0-.65-1c-.26-.36-1.38-1.92-1.49-2.1a5.31,5.31,0,0,1-.39-.92A27.35,27.35,0,0,0,7.1,9.11a21.85,21.85,0,0,0,2.77,1.63c.09,0,.91.48,1,.34s-.68-.53-.74-.57a16.75,16.75,0,0,1-1.94-1.3A18.54,18.54,0,0,1,6.69,8c-.15-.15-.34-.3-.36-.48A15.78,15.78,0,0,0,9.64,9.15c.3.1.6.24.91.36s.64.21,1,.32a14.09,14.09,0,0,0,2,.57,7.44,7.44,0,0,1,.78.22,5.88,5.88,0,0,0,1.28.38,5.87,5.87,0,0,0-1.36-.7c-.29-.15-.68-.32-1-.45-.6-.27-1.08-.58-1.65-.87s-1.16-.59-1.72-.9S9,7.65,8.58,7.39c-.12-.09-.22-.2-.35-.29s-.43-.26-.64-.41C7,6.25,6.38,5.84,5.81,5.38c-.39-.3-.78-.6-1.15-.91s-.7-.66-1.06-1c-.15-.14-.33-.24-.49-.39l-.45-.42c-.3-.28-.65-.53-.91-.83S1.2,1.29.9,1A6.31,6.31,0,0,0,.07.06.08.08,0,0,0,0,.11,2.34,2.34,0,0,0,.16,1c.15.57.35,1,.53,1.53Zm45.15,9.95c.11.12.18.25.28.35a3,3,0,0,0,.39.3c.13.09.27.15.38.24a3.5,3.5,0,0,1,.86,1,9.46,9.46,0,0,1,.47,1.54,1.13,1.13,0,0,0,.21.47c.06,0,.2,0,.29,0a2.77,2.77,0,0,0,1-.69c.09-.1.23-.23.24-.34,0-.34-.32-.4-.54-.53.33-.33,1-.44,1.23-.84a.35.35,0,0,0,0-.45,1.89,1.89,0,0,0-.29-.23c-.11-.07-.26-.12-.28-.25.34-.18.83-.35,1.17-.56a.61.61,0,0,0,.28-.67c0-.12-.21-.22-.2-.34s.19-.15.3-.2c.61-.28,1.29-.43,2-.67.18-.06.43-.14.43-.3a.3.3,0,0,0-.14-.22c-.14-.09-.38-.05-.47-.16a5.48,5.48,0,0,1,1-.32l1-.28C55.9,9.14,56.51,9,57,8.92c.17,0,.43-.07.48-.16s-.18-.28-.29-.35a8.82,8.82,0,0,1,1-.31c.34-.08.72-.14,1.09-.24s1.14-.16,1.68-.3c.1,0,.46-.1.39-.28s-.33-.07-.44-.06l-1.09.09c-.18,0-.37,0-.57,0A44.11,44.11,0,0,0,54.48,8a16.45,16.45,0,0,0-2,.52c-.33.11-.65.21-1,.3-.61.16-1.17.39-1.75.57-.34.11-.66.26-1,.39a9.19,9.19,0,0,0-1.81.93,5.22,5.22,0,0,0-1,.83c-.14.17-.37.4-.36.57s.17.23.28.35Zm27.55-.78a16.32,16.32,0,0,1-2.15,0c-.62,0-1.27,0-1.86,0a20.12,20.12,0,0,1-2.78-.35l-.6-.12a14.51,14.51,0,0,1-1.72-.44c-.36-.13-.73-.23-1.08-.36s-.7-.26-1.07-.37a13.75,13.75,0,0,0-2.31-.58.06.06,0,0,0,0,0c0,.13.26.11.38.15s.33.13.51.19c.36.12.67.26,1,.39.5.21.91.49,1.39.7.32.14.63.31,1,.44a21.76,21.76,0,0,0,2.45.9,3.38,3.38,0,0,1,.85.27A4.67,4.67,0,0,1,66,12.37c-.21,0-.41-.09-.62-.15s-.44-.06-.66-.12l-.4-.13-1.24-.38a8.82,8.82,0,0,0-1.73-.43c.11.16.35.15.53.21.58.17,1.12.42,1.68.61.37.13.74.29,1.12.4s.81.17,1.2.32a2.74,2.74,0,0,1-.66,0,10.16,10.16,0,0,1-1.91,0c-.41,0-.78-.1-1.2-.13-.12,0-.27-.08-.37,0a1.09,1.09,0,0,0,.46.22c.53.15,1.07.29,1.63.42a8.54,8.54,0,0,0,1.76.27c.21,0,.42.06.62.06l.19,0c.43,0,.88,0,1.32,0,.67,0,1.32-.12,2-.22.47-.08.93-.19,1.34-.29l.46-.09a12.75,12.75,0,0,0,1.65-.52,6.34,6.34,0,0,0,.77-.31l.34-.21c.1-.06.24-.13.26-.27a3.06,3.06,0,0,0-1.09,0Zm-13.67-.44c.11,0,.25.07.35,0s-.21-.21-.34-.29a5.62,5.62,0,0,0-1.26-.62,8.2,8.2,0,0,0-2.06-.45,2.46,2.46,0,0,0-.4,0c-.09,0-.25,0-.28.09a.85.85,0,0,0,.41.14,3.78,3.78,0,0,1,1.27.35,11.67,11.67,0,0,0-2.66.21c-.3.06-.6.1-.87.17-.08,0-.21,0-.23.13a.79.79,0,0,0,.43,0l.49,0c.21,0,.43-.06.65-.08l.72,0a6.26,6.26,0,0,1,1.41,0l-1.88.38c-.19,0-.43.05-.54.22a.51.51,0,0,0,.25,0c.67-.06,1.3-.19,2-.23a15.48,15.48,0,0,1,2.57,0Zm11.24-1a21.57,21.57,0,0,1-3.73.33c-.42,0-.85,0-1.26-.07a3.36,3.36,0,0,1-.4-.06c-.13,0-.27,0-.41,0-.42,0-.83-.08-1.23-.14s-.84-.06-1.21-.14c-.1,0-.29,0-.3-.17a1.74,1.74,0,0,1,.63,0c.23,0,.46,0,.69,0,.9,0,1.81-.09,2.76-.19a9.21,9.21,0,0,0,1.45-.25,13.12,13.12,0,0,1-3.52-.29A4.2,4.2,0,0,0,63.57,9c-.05,0-.26,0-.25-.09s.21-.06.25-.06c1.12,0,2.08.15,3.17.18a7.62,7.62,0,0,0,1.2,0c-.46-.1-.92-.24-1.38-.38-.22-.07-.47-.11-.71-.17s-.46-.16-.69-.2L64,8.07A3.94,3.94,0,0,0,63.33,8c-.34,0-.72,0-1.06,0-.09,0-.25,0-.27-.11a.86.86,0,0,1,.47-.09l.51,0c.34,0,.66,0,1-.06a14.27,14.27,0,0,0,2.12-.31c1.12-.27,2.23-.61,3.25-1a11.74,11.74,0,0,0,1.46-.57,14,14,0,0,0,1.27-.68A21.7,21.7,0,0,1,68,6.3c-.77.14-1.5.19-2.26.32-.35.06-.71.1-1.08.14S63.58,6.89,63,7c-.09,0-.48.11-.5,0s.12-.09.19-.11c.66-.13,1.39-.25,2-.32a42.43,42.43,0,0,0,4.65-1,11.76,11.76,0,0,0,2.17-.72,39.57,39.57,0,0,1-4.22.42,6.89,6.89,0,0,1-1.56,0c-.08,0-.16-.06-.14-.13S65.91,5,66,5s.36-.06.48-.08a8.61,8.61,0,0,0,1-.18c1-.3,2-.54,3-.79s2-.56,2.91-.83c.62-.19,1.27-.38,1.84-.59s1.17-.45,1.68-.69c.79-.37,1.64-.71,2.34-1.12A2.59,2.59,0,0,1,80,.34c.09.12,0,.27-.11.37a3.4,3.4,0,0,1-.52.67c-.11.1-.19.23-.28.33A11.92,11.92,0,0,1,77.84,3a16.48,16.48,0,0,1-2.2,1.68,20.55,20.55,0,0,1-4.86,2.18c-.77.22-1.58.41-2.38.59-.58.13-1.17.21-1.73.29a1.78,1.78,0,0,0-.53.08c.41,0,.82.1,1.23.16s.83.09,1.26.14.84.1,1.27.11.85.09,1.28.11c.89.05,1.79,0,2.7,0,.68,0,1.37,0,2,0a3.33,3.33,0,0,1,.67,0c-.09.27-.46.32-.71.44a16.64,16.64,0,0,1-2.79,1c-.71.17-1.41.37-2.09.49ZM13.67,17.49a18.93,18.93,0,0,0,3.47-.58c.39-.1.76-.25,1.14-.37a3.08,3.08,0,0,0,.35-.15c.11-.05.24-.08.37-.13.37-.14.74-.28,1.09-.43s.75-.26,1.08-.43c.09,0,.25-.11.23-.24a1.51,1.51,0,0,0-.57.13c-.21.06-.42.08-.64.13-.83.18-1.67.34-2.56.47a7.94,7.94,0,0,1-1.38.1,11.75,11.75,0,0,0,3.14-1.13,3.78,3.78,0,0,1,.73-.33s.25,0,.21-.15-.2,0-.24,0c-1,.31-1.86.65-2.85.94a6.81,6.81,0,0,1-1.1.27c.4-.21.78-.46,1.17-.7.19-.12.41-.22.61-.34s.38-.27.59-.36l1-.48a3.37,3.37,0,0,1,.59-.24c.31-.08.66-.18,1-.29.08,0,.22-.06.22-.17a.77.77,0,0,0-.45,0l-.48.08c-.32,0-.61.14-.92.19a12.4,12.4,0,0,1-2,.21,31.51,31.51,0,0,1-3.18-.16,10.23,10.23,0,0,1-1.46-.21,12.56,12.56,0,0,1-1.31-.36,19,19,0,0,0,4,.16c.73,0,1.41-.17,2.13-.23.33,0,.67-.07,1-.13s1-.13,1.53-.19c.09,0,.46,0,.45-.12s-.13-.06-.2-.06c-.63,0-1.32.09-1.87.16a36.92,36.92,0,0,1-4.45.17,10.29,10.29,0,0,1-2.14-.19,34.68,34.68,0,0,0,3.94-.6,6.1,6.1,0,0,0,1.42-.38c.06,0,.13-.09.1-.16s-.3,0-.38,0-.34,0-.45,0a7.45,7.45,0,0,1-.92.06c-1,0-1.92,0-2.89-.06s-1.93-.07-2.84-.12c-.61,0-1.24-.07-1.81-.14s-1.17-.16-1.69-.27c-.8-.17-1.65-.3-2.39-.53A2.31,2.31,0,0,0,3.24,10c-.06.14.11.25.18.34a3.32,3.32,0,0,0,.62.53c.12.08.22.17.33.25A11,11,0,0,0,5.77,12a14.93,14.93,0,0,0,2.38,1.11,18.25,18.25,0,0,0,4.92,1c.76,0,1.54,0,2.3,0,.56,0,1.12-.08,1.64-.13a1.54,1.54,0,0,1,.5,0c-.37.13-.73.29-1.09.45s-.74.29-1.11.44-.74.29-1.14.42-.75.29-1.14.42c-.8.26-1.63.43-2.46.66-.61.17-1.25.33-1.82.51a2.93,2.93,0,0,0-.61.17c.14.24.49.2.75.25a14.38,14.38,0,0,0,2.77.28c.68,0,1.37,0,2,0Zm5.78-6.72c-.11,0-.49,0-.5.12s.15.13.17.14a1.09,1.09,0,0,0,.28,0,10.8,10.8,0,0,1,3,.42c-.07.07-.23.09-.23.22s.25.15.39.17A3.47,3.47,0,0,1,23,12c.61.18,1.51.18,2.15.31,0,.07-.11.15-.08.29s.3.15.46.16a5.35,5.35,0,0,1,1.43.13c0,.08.1.09.1.2s-.13.19-.09.32.85.06,1.12.08.7,0,.74.23-.06.13-.1.25c-.25.66.65.5,1,.68,0,.2-.11.31-.07.54a.85.85,0,0,0,.15.29c.19.22.58.26.84.38s.27.25.35,0,.07-.3.1-.42a1.74,1.74,0,0,1,.31-.74s.15-.12.15-.21-.26-.21-.37-.26a.89.89,0,0,1-.38-.25A4.77,4.77,0,0,1,32,13.46c.18-.06.42-.12.66-.2s.59-.11.6-.27-.27-.22-.35-.36c.17-.06.37-.1.53-.14l.2,0c.05,0,.11-.07.16-.09s.29-.06.4-.11.21-.15.21-.23-.28-.15-.39-.21-.23-.15-.31-.19l-.15,0-.16-.09a2.82,2.82,0,0,0-.6-.15c-.19,0-.39-.07-.57-.08a19,19,0,0,0-2.9.09c-.49,0-.95.13-1.45.17a11.85,11.85,0,0,1-2.14.06c-.37,0-.74-.14-1.1-.19a10.36,10.36,0,0,1-1.11-.18l-1-.27a7.4,7.4,0,0,0-1.13-.16,9.74,9.74,0,0,0-1.28,0c-.18,0-.37,0-.62,0Zm18.83.89a1.6,1.6,0,0,1,.16.32c0,.11.08.27.21.29s0-.23.06-.29.32.19.48.28a1.51,1.51,0,0,0,.52.22c0-.13-.13-.18-.22-.24a4.38,4.38,0,0,0-.32-.36,4.68,4.68,0,0,1,1.44.47,4.69,4.69,0,0,1,.92.52c.08.06.18.16.3.14s-.09-.15-.15-.22a2.78,2.78,0,0,0-.36-.35c0-.16-.06-.36,0-.48.21.09.38.27.61.3,0-.24-.24-.34-.36-.51a6.21,6.21,0,0,1,2.14.64,1,1,0,0,0,.53.17,1,1,0,0,0-.42-.34,7.73,7.73,0,0,0-1-.52,3.73,3.73,0,0,0-.53-.22,8.53,8.53,0,0,0-1.35-.2,1.39,1.39,0,0,0-.49,0c-.24.07.06.25.14.31a1.16,1.16,0,0,1,.38.68c-.23-.09-.42-.29-.67-.4a5.65,5.65,0,0,0-2-.46c-.13,0-.23,0-.24.09s.1.13.15.2Zm18.79,1.25a4.36,4.36,0,0,0-.38-.28,3.2,3.2,0,0,0-.39-.27l-.45-.21a6.06,6.06,0,0,0-2.44-.65c-.22,0-.52-.06-.59.08.29.11.64.12.95.22l.45.14a.88.88,0,0,1,.4.19,10.77,10.77,0,0,0-2.33,0c-.12,0-.28,0-.32.11a10.86,10.86,0,0,1,2.52.12,1,1,0,0,1,.42.13,9.26,9.26,0,0,0-1.2.13c-.1,0-.28,0-.27.19s.26,0,.37,0,.45.08.68.12c.94.12,1.92.2,2.8.35.07-.17-.11-.3-.21-.39Zm11.6,2.62c-.16,0-.33,0-.45,0-.59,0-1.1-.19-1.64-.28a5.69,5.69,0,0,1-1.64-.58c-.26-.13-.49-.23-.73-.37s-.33-.22-.51-.3-.26-.1-.37-.16c-.34-.2-.65-.44-1-.64s-.48-.23-.7-.38l-.32-.22a3.1,3.1,0,0,0-.37-.17c-.13-.06-.29-.19-.47-.28a3.27,3.27,0,0,0-.55-.22.05.05,0,0,0,0,0c0,.09.1.13.2.2s.15.14.21.19.34.21.47.31.27.25.4.37.31.23.44.35.58.47.84.72.26.26.4.38.32.19.4.36c-.66-.3-1.31-.64-1.91-1-.09,0-.15-.12-.24-.17s-.37-.17-.56-.28-.37-.2-.55-.29a11.56,11.56,0,0,0-1.17-.52c-.3-.1-.62-.16-.94-.27-.12,0-.24-.14-.38-.09,0,.08.13.08.19.1.23.09.45.2.69.28a6,6,0,0,1,.91.37,12.67,12.67,0,0,1,1.24.68c.13.09.29.15.42.23s.15.13.24.19c.44.28.92.54,1.38.8a2.9,2.9,0,0,1,.58.3,15.85,15.85,0,0,1-1.81-.25c-.57-.11-1.1-.32-1.68-.38,0,.13.13.19.22.24a5.27,5.27,0,0,0,.63.3c.11.05.21.12.31.16s.41.13.62.21l.6.24a9.78,9.78,0,0,0,4.19.64,5.71,5.71,0,0,0,.77-.14c.26-.06.54-.07.81-.12s.4-.12.61-.17.56-.09.56-.23-.19-.12-.32-.14ZM33.82,12.66c0,.14.23.09.35.1a3.45,3.45,0,0,1,1.52.51c.06,0,.11.1.17.14l.13,0c.11.06.19.18.33.2.05-.27-.15-.43-.27-.59a.94.94,0,0,1-.17-.25,2.18,2.18,0,0,0,.76.06c-.06-.17-.32-.15-.4-.3a6.24,6.24,0,0,1,2.16.11c.16,0,.32.17.48.09,0-.17-.2-.25-.36-.31A3.62,3.62,0,0,0,38,12.3a5.45,5.45,0,0,0-1.11-.24,5.26,5.26,0,0,0-.67,0c-.16,0-.32.06-.47.07a8.52,8.52,0,0,0-1,.14c-.27.06-.48.21-.73.28s-.21,0-.21.12Zm10.24.23c0,.21,0,.49-.07.68a5,5,0,0,0-.8-.73l-.47-.29a1.9,1.9,0,0,0-.5-.27h0c-.15,0,0,.3,0,.45a2.83,2.83,0,0,1,.08.38c0,.18,0,.34,0,.45a4.35,4.35,0,0,1-.07.76c0,.09,0,.23.11.24a3.58,3.58,0,0,0,.38-1.13A5.71,5.71,0,0,1,43,14c.05.09.12.18.16.28s.06.23.16.29a3.8,3.8,0,0,0-.23-1.06c0-.09-.12-.15-.1-.25A3.45,3.45,0,0,1,44,14c.06.09.1.23.24.22s0-.14,0-.22.07-.16.09-.24,0-.2.08-.27c.1.18.26.36.38.54s.12.3.23.35c0-.32-.22-.58-.28-.84a1.59,1.59,0,0,1,.57.46c.08.1.12.27.27.3s0-.24-.07-.34-.1-.23-.16-.32a2,2,0,0,0-.76-.61c-.14-.08-.29-.21-.46-.19Zm-8.61,1c-.21,0-.74.06-.78.17s.36.25.52.33a1.65,1.65,0,0,1,.14.1c.07,0,.15,0,.22.08.29.15.46.41.74.51.09-.13-.09-.3-.07-.44.28.14.62.19.88.35.09.05.17.14.29.1a1.39,1.39,0,0,0-.51-.47c-.06,0-.15-.07-.17-.14a7.39,7.39,0,0,1,1.43.38c.07,0,.14,0,.21.06s.18.19.31.12-.25-.17-.31-.31a1.15,1.15,0,0,1,0-.35,1.44,1.44,0,0,1,0-.33c.11,0,.17.14.25.21a2.18,2.18,0,0,1,.18.13,2.66,2.66,0,0,1,.21.27c.06.08.13.2.25.2s0-.15,0-.21a4.77,4.77,0,0,0-.56-.8,2.93,2.93,0,0,1,.88.28,2.07,2.07,0,0,1,.68.47c.07.08.1.2.24.21,0-.17-.15-.24-.2-.37a3.51,3.51,0,0,0,.27-.9c.08.1.22.19.3.29s.06.15.14.13c0-.19-.1-.39-.15-.57a2,2,0,0,1,.93.5c.09.07.16.17.28.2s-.08-.22-.14-.31a1.76,1.76,0,0,0-.74-.67,3.48,3.48,0,0,0-.64-.3,3.29,3.29,0,0,0-.5-.1c-.32,0-.1.23,0,.32a2.81,2.81,0,0,1,.23.82.64.64,0,0,1,0,.4A4.11,4.11,0,0,0,38,13.1a5.59,5.59,0,0,0-.83-.17c-.16,0-.21,0-.21.12s.21.18.3.25A2,2,0,0,1,38,14.5a7.63,7.63,0,0,0-2.1-.6,2.64,2.64,0,0,0-.45,0ZM51,13.32c0,.1.14.09.21.11.58.13,1.2.28,1.76.44.19.05.37.15.54.21a1.15,1.15,0,0,1,.5.23l-.82,0c-.06,0-.4,0-.42.07s.18.11.22.12a14.52,14.52,0,0,0,2,.43,1.89,1.89,0,0,0,.64,0,.77.77,0,0,0-.14-.34A2.38,2.38,0,0,0,55,14a4.52,4.52,0,0,0-1.76-1,3.36,3.36,0,0,0-1.07-.2s0,0,0,0,.18.09.27.11a4,4,0,0,1,1,.43,1.84,1.84,0,0,1,.58.46,11.83,11.83,0,0,0-1.44-.35c-.51-.07-1-.19-1.55-.22Zm-15.52,0c-.12,0-.33-.09-.44-.11a5.4,5.4,0,0,0-1,0,4,4,0,0,0-1.29.32c-.17.08-.34.13-.57.24s-.48.24-.47.35.16.11.26.14a4,4,0,0,1,.91.32,5.28,5.28,0,0,0,.76.39s.1.07.15,0a1,1,0,0,0-.22-.39,2.91,2.91,0,0,1-.27-.36,4,4,0,0,0,.89-.07c.1,0,.24,0,.25,0s-.13-.09-.2-.11-.11-.08-.15-.09c-.2-.06-.45,0-.63-.07A4.71,4.71,0,0,1,35,13.58c.25,0,.75.1.77,0s-.22-.14-.36-.17Zm11.49,1.48a2.61,2.61,0,0,1,.28.35c.07.12.1.27.22.36.06-.12,0-.27,0-.39a1.47,1.47,0,0,0-.16-.35,3.85,3.85,0,0,0-.42-.6,4.12,4.12,0,0,0-.78-.75.85.85,0,0,0-.34-.17c-.14,0-.06.19,0,.27a3.75,3.75,0,0,1,.2,1.06c0,.14-.08.44.07.44s.18-.44.22-.57a3.15,3.15,0,0,1,.28.52,7.57,7.57,0,0,1,.29.92c0,.1,0,.24.1.31a1.87,1.87,0,0,0,0-.82,3,3,0,0,0-.39-1.07,1.94,1.94,0,0,1,.52.5ZM23.72,13.58c0-.11-.12-.1-.18-.09a8.43,8.43,0,0,0-1.63.46,3.8,3.8,0,0,0-1,.53c-.1.08-.26.19-.25.28s.26.12.39.12c.49,0,1-.1,1.41-.14a21.57,21.57,0,0,1,2.75-.07c0-.11-.1-.16-.18-.19a8.4,8.4,0,0,0-2-.22,9.11,9.11,0,0,1,1.54-.18c.55,0,1.13,0,1.68-.06a1.07,1.07,0,0,0,.35-.07,5.06,5.06,0,0,0-1-.12c-.2,0-.4-.07-.6-.08a12.55,12.55,0,0,0-2.15.21,3.28,3.28,0,0,1,.68-.29c.1,0,.26,0,.28-.09ZM58.3,15.37a5.5,5.5,0,0,1-.47-.32,10.17,10.17,0,0,0-1-.62,5.13,5.13,0,0,0-.58-.23c-.15-.06-.3-.18-.48-.14,0,.11.12.13.18.16l.47.2a6.81,6.81,0,0,1,1.21.83c.13.1.25.22.38.31s.21.1.3.16.11.12.17.17.34.22.5.36.33.25.49.38L60,17a1.81,1.81,0,0,1,.46.38,10,10,0,0,1-2.18-.4c-.14,0-.31-.16-.46-.07,0,.12.15.19.24.27a2.57,2.57,0,0,0,.32.22,9.61,9.61,0,0,0,5.47,1c.19,0,.51,0,.55-.14s-.05-.09,0-.2a7.29,7.29,0,0,0-.69-.28c-.24-.09-.44-.22-.66-.32s-.29-.1-.42-.17l-.38-.21a7.26,7.26,0,0,1-.7-.47c-.23-.15-.45-.33-.68-.5s-.48-.32-.69-.5-.22-.22-.34-.33-.38-.31-.56-.46l-.2-.15a3.22,3.22,0,0,0-.36-.32l-.22-.12a1.66,1.66,0,0,0-.58-.31.06.06,0,0,0,0,0c0,.1.2.25.29.35s.2.25.29.35c.31.32.64.64.92,1,.1.11.18.24.28.36a7.65,7.65,0,0,1,.57.69c-.47-.32-.91-.7-1.39-1-.17-.11-.32-.23-.49-.32ZM42.12,15a1.83,1.83,0,0,0-.4-.65A.94.94,0,0,0,41.2,14c-.07.13,0,.25,0,.39a1.63,1.63,0,0,1-.89,1.28s0-.13,0-.21S40.18,15,40,15s-.09.12-.16.2a1.7,1.7,0,0,1-1.09.39c-.52,0-1.14-.21-1.77-.25l-.37,0a4.83,4.83,0,0,0-1.32.14,3,3,0,0,0-.67.2,5.43,5.43,0,0,0-.59.27,1.65,1.65,0,0,0-.5.37,3.22,3.22,0,0,0-.24.46c-.08.15-.13.33-.22.5s-.39.29-.44.56,0,.33.14.35.22-.08.35-.11a3.83,3.83,0,0,0,.39-.07c.18-.08.24-.31.44-.31,0,.1-.12.17-.09.32s.21.25.28.39.08.24.15.29a.79.79,0,0,0,.34.1.29.29,0,0,0,.3-.13c.06-.09.11-.18.18-.27l.16-.19a1.28,1.28,0,0,1,.33-.27.39.39,0,0,1,.3-.07l.15,0a.45.45,0,0,0,.3-.09,1.27,1.27,0,0,0,.35-.3c0-.06.08-.2.21-.16,0,.24-.11.35-.25.47a2.19,2.19,0,0,1-.79.48.8.8,0,0,0-.42.22c-.05.06-.19.18-.17.27s.13-.06.18-.11a.2.2,0,0,1,.09-.06s.12,0,.12,0a.37.37,0,0,0,.21.38c.17.07.42,0,.46-.16s-.06-.24,0-.36c.25,0,.34.28.25.49a.69.69,0,0,1-.44.23c-.28,0-.48-.11-.68-.11a.5.5,0,0,0,.3.35A.78.78,0,0,0,36.87,19c0-.18-.09-.34,0-.52.37,0,.28.66.11.86a1.51,1.51,0,0,1-.88.36c-.13,0-.27,0-.3.06s.19.25.27.34.27.25.28.35-.08.14-.12.21c-.12.25-.15.53-.27.76a1.82,1.82,0,0,1-.43.61c-.17.14-.38.25-.55.4a2.85,2.85,0,0,0-.68.81l-.2.33c-.07.12-.1.25-.16.37s-.14.24-.2.35-.06.28-.14.39-.36,0-.42-.23a3.08,3.08,0,0,1,0-1.48,2.92,2.92,0,0,0,.12-.51c0-.23,0-.5,0-.75a4.45,4.45,0,0,0,0-.72c0-.08-.09-.11-.09-.22l.28,0a1.11,1.11,0,0,1,.25.73,2.54,2.54,0,0,1-.09.58c-.06.38-.1,1.12.29,1.13.14,0,.22-.1.29-.21a2.37,2.37,0,0,1,.22-.29c.19-.2.41-.33.54-.46l.29-.31a2.71,2.71,0,0,0,.74-1.1,2.49,2.49,0,0,0,.07-.36c0-.12-.26-.27-.42-.31a3,3,0,0,0-1,0c-.22,0-.45.17-.76.21a3.54,3.54,0,0,0-.84.13,1.25,1.25,0,0,0-.71.76,2.65,2.65,0,0,1-.1.43,3,3,0,0,1,.2-2.74c.06-.09.19-.13.17-.26s-.25.08-.34.17a2.28,2.28,0,0,0-.24.32,4.15,4.15,0,0,0-.39.73,2.53,2.53,0,0,0,0,1.23c0,.19.15.4.21.59a1.67,1.67,0,0,0,.13.28c.12.22.27.56.58.39,0-.08,0-.16,0-.23a1.6,1.6,0,0,1,.15-.87c.07-.15.17-.31.31-.34a.59.59,0,0,1,.09.23,6,6,0,0,1,0,1.22c0,.16-.09.31-.12.47s0,.22,0,.32-.05.2-.06.3A2.38,2.38,0,0,0,33.14,25a.55.55,0,0,0,.43.18c.25,0,.34-.29.44-.52a3.56,3.56,0,0,0,.29-.65,5.28,5.28,0,0,1,1.5-1.8,1.24,1.24,0,0,1,.77-.29,2.26,2.26,0,0,0-.62.55,1.5,1.5,0,0,0,.88.14,6.8,6.8,0,0,0,1-.11,2.06,2.06,0,0,1,.81,0c.51.1,1,.23,1.54.31a7.25,7.25,0,0,0,3.23-.4,8.38,8.38,0,0,0,2-.82c.11-.06.21-.15.32-.22s.44-.3.65-.44a4.24,4.24,0,0,0,.64-.49,3.83,3.83,0,0,0,.46-.5,3.58,3.58,0,0,0,.34-.45c0-.09.11-.17.15-.24a2.77,2.77,0,0,0,.14-.5,3.09,3.09,0,0,0,.11-.53,4.32,4.32,0,0,0-.09-.84,1.55,1.55,0,0,0-.2-.67,1.2,1.2,0,0,0-.84-.65c-.09.22,0,.55-.1.76a1.3,1.3,0,0,1-.65.7,2.06,2.06,0,0,0,.12-1.24c0-.11-.09-.43-.21-.43s-.12.11-.16.23a2.32,2.32,0,0,1-.39.73,1.43,1.43,0,0,1-.37.35A4,4,0,0,0,45.66,16a5.74,5.74,0,0,0,0-.62c0-.21-.08-.67-.26-.66s-.19.3-.24.38a1,1,0,0,1-.3.29,3.35,3.35,0,0,0-.13-.91c0-.16-.14-.48-.31-.5s-.06.26-.08.38a2.1,2.1,0,0,1-.16.45,4.86,4.86,0,0,1-.42.81.8.8,0,0,1-.3.32,2.82,2.82,0,0,0,0-.57c0-.07-.11-.37-.23-.32s-.08.26-.12.38a2.11,2.11,0,0,1-.15.36A2.32,2.32,0,0,1,41.61,17a2.65,2.65,0,0,0,.61-1.11,1.94,1.94,0,0,0-.1-.89Zm-6.63,2.79a1.66,1.66,0,0,1-.19.09.7.7,0,0,0-.29.25c0,.08-.09.29-.19.16a.38.38,0,0,1,0-.22v0c.08-.33.52-.37.79-.35l-.12.11Zm-1,3.95c.14-.22.17-.44.29-.64s.19-.17.25,0-.15.32-.06.45.1-.14.13-.21a.37.37,0,0,1,.43-.29c-.08.16-.09.33-.16.47a2.73,2.73,0,0,1-.79.77c-.16.14-.31.25-.46.39-.26-.39.22-.71.37-.94Zm2.92-2.85c-.13-.07-.08-.19-.13-.31a1.23,1.23,0,0,0-.16-.24c0-.06-.16-.17-.16-.23,0-.25.25,0,.31,0a.85.85,0,0,1,.14.74Zm.21-.9c-.08,0-.13-.06-.18-.09s-.17,0-.17-.14a.11.11,0,0,1,.08-.1c.14,0,.47.27.28.33ZM44,16.06a1.81,1.81,0,0,0,.23-.45c0-.07.11-.19.17-.2.24,0,.17.52.17.76.31-.11.45-.58.69-.77a.16.16,0,0,1,.15,0,.69.69,0,0,1,.07.46,3.9,3.9,0,0,1-.38,1.1c-.07.16-.16.33-.25.48a2.39,2.39,0,0,1-.9.95,1.13,1.13,0,0,1,.28-.35,3.15,3.15,0,0,0,.87-2c-.12.06-.24.21-.39.31l-.21.14s-.14.15-.22.1.15-.42,0-.56l-.32.22c-.08.05-.14.17-.24.16,0-.17.19-.26.3-.39Zm-5.66,2.17c-.12,0-.25.13-.36.06s.17-.1.26-.14L38.5,18a6.89,6.89,0,0,1,.62-.37.13.13,0,0,1,.13.06c0,.1-.13.21-.22.25a3.5,3.5,0,0,1-.72.27Zm4.16-.9c.17-.12.31-.25.47-.36h0c.06.1-.1.23-.17.3a3.46,3.46,0,0,1-.29.24,5.79,5.79,0,0,1-.61.46,3.8,3.8,0,0,1-1.65.47c-.07-.19.16-.22.27-.31a1.2,1.2,0,0,0,.24-.31c-.26.09-.55.22-.85.32a2.56,2.56,0,0,1-1,.17c.06-.1.2-.11.29-.14a7.12,7.12,0,0,0,1.73-.77c.08,0,.17-.16.28-.12s-.06.29-.13.4-.16.23-.22.35a3.76,3.76,0,0,0,1.59-.72Zm-1-1c0,.07-.08.16-.16.16,0-.19.17-.48,0-.72a5.61,5.61,0,0,1-1.44.53,1.14,1.14,0,0,1-.53.07c.06-.14.25-.17.33-.29a.39.39,0,0,0,.06-.17c-.21,0-.53,0-.82,0s-.42,0-.5-.12a4.84,4.84,0,0,0,1.12-.07c.16,0,.27-.17.42-.19s0,.37.07.53a1.43,1.43,0,0,0,1-.42,1.39,1.39,0,0,0,.48-.59.83.83,0,0,0,.09-.39s0,0,0,0h0a.7.7,0,0,1,0,.6,1.35,1.35,0,0,1-.16,1.07Zm8.74-1.57c0,.09.13.09.2.1.27,0,.54.09.79.15.07,0,.14.07.21.09l.24.07c.45.18.91.34,1.33.53a5.35,5.35,0,0,1-.92,0c-.1,0-.22,0-.3,0s.27.15.42.19a11.29,11.29,0,0,0,2.09.36c.15,0,.49.07.53,0s-.2-.32-.3-.43a5.21,5.21,0,0,0-.4-.36,8.07,8.07,0,0,0-2.43-1.36c-.06,0-.16,0-.2,0s.13.13.2.16l.23.13a8.79,8.79,0,0,1,.84.6,1.34,1.34,0,0,1,.35.36A11.52,11.52,0,0,0,51,14.84c-.12,0-.25-.05-.39-.07a.64.64,0,0,0-.4,0Zm-22.43-.31c-.32.06-.65.08-1,.12s-.61.13-.91.18a14,14,0,0,0-1.66.53c.08-.11.23-.21.25-.33a1.21,1.21,0,0,0-.36.1,2.44,2.44,0,0,0-.61.36c-.1.07-.22.12-.3.18a4.92,4.92,0,0,0-.4.4.89.89,0,0,0-.29.5.85.85,0,0,0,.56-.1c.17-.07.36-.14.54-.2.37-.11.75-.24,1.13-.34s.82-.15,1.21-.25l.89-.22c.08,0,.22,0,.25-.12s-.23,0-.35,0c-.58,0-1.2.06-1.72.13a21.8,21.8,0,0,1,2.52-.69l.19-.08.25-.07c.07,0,.17,0,.21-.12-.14-.06-.3,0-.42,0ZM31,16.37c-.08.08-.38.42-.37.54s.14.11.27.16a1.35,1.35,0,0,0,.25.1l.32,0a3.71,3.71,0,0,0,.91.09c.12,0,.44,0,.44-.14s-.34-.18-.42-.21a1.61,1.61,0,0,1-.46-.17,2.52,2.52,0,0,1,.58-.16c.13,0,.25-.11.37-.15s.29,0,.37-.15a1.28,1.28,0,0,0-.49,0,2.61,2.61,0,0,0-.8.08,3,3,0,0,1,1.32-.62c.13,0,.46-.06.46-.2s-.36-.13-.54-.12a5.06,5.06,0,0,0-.88.18,2.79,2.79,0,0,0-.28.07,3.85,3.85,0,0,0-.38.22,3.55,3.55,0,0,0-.68.45ZM50.87,17c0,.12.2.17.31.23s.25.11.38.16a5,5,0,0,0,1.83.38c.2-.12-.06-.31-.17-.44-.29-.31-.61-.56-.87-.84a6.89,6.89,0,0,0-.61-.52,2.72,2.72,0,0,0-.84-.51s0,0,0,0,.12.16.18.22.15.14.22.21a2.69,2.69,0,0,1,.67.75c-.33-.15-.68-.31-1-.45-.11,0-.23-.13-.36-.08a1,1,0,0,0,.36.25,8.19,8.19,0,0,1,.74.49,1.1,1.1,0,0,1,.34.26l-.59-.07c-.19,0-.38-.14-.53,0ZM28.79,15.57c-.26.05-.51,0-.75.11a6,6,0,0,0-1.33.68c0-.23.22-.33.2-.55a1.51,1.51,0,0,0-.62.46,3.71,3.71,0,0,0-.7,1.07c0,.1-.15.33-.07.4a.75.75,0,0,0,.35,0,6.85,6.85,0,0,0,.8-.31l.6-.22a2.08,2.08,0,0,1,.44-.2A5.25,5.25,0,0,0,27,18.81c0,.12-.12.56,0,.6s.22-.13.28-.21a2.11,2.11,0,0,1,.23-.27,8.48,8.48,0,0,1,1.38-1.07,4.72,4.72,0,0,0,0,1.43c0,.08,0,.16,0,.23,0,.23.2.82.37.38a3.66,3.66,0,0,1,.8-.65,2.48,2.48,0,0,0,.15.53c.13.34.28.15.43-.06a1.26,1.26,0,0,1,.24-.29c.13-.1.32-.15.3-.32-.2-.11-.5.1-.68.12,0-.1,0-.21,0-.31s.52-.19.51-.5a.51.51,0,0,0-.29,0c-.4.11-.83.22-1.19.34a2.22,2.22,0,0,1,.56-.74,5,5,0,0,1,.57-.43c.06,0,.16,0,.17-.15a.33.33,0,0,0-.29,0,2.32,2.32,0,0,0-.48.28,2.83,2.83,0,0,0-.44.34c-.07.08-.11.2-.21.23a1.88,1.88,0,0,1,.15-.94c0-.08.27-.1.24-.21s-.28,0-.38,0c-.42.11-.84.26-1.17.37a4.29,4.29,0,0,1,1.48-.91c.06,0,.19-.06.19-.16s-.33,0-.48,0a3,3,0,0,0-1.09.47.37.37,0,0,1-.19.11c.13-.18.19-.43.36-.56a2.06,2.06,0,0,1,.45-.17c.13,0,.3-.09.37-.21a.73.73,0,0,0-.33,0c-.67.1-1.35.22-2,.37a6.28,6.28,0,0,1,1.88-.91c0-.09-.06-.08-.1-.07Zm29.82,4.59a7.63,7.63,0,0,0,2.27.44c.14,0,.62,0,.6-.2s-.13-.12-.21-.16-.09-.08-.14-.12-.38-.21-.56-.34-.38-.24-.54-.37-.25-.27-.4-.39a8.29,8.29,0,0,1-1.25-1.17c-.24-.28-.52-.54-.79-.82a3.8,3.8,0,0,0-.41-.38c-.16-.12-.28-.29-.42-.39l-.28-.18c-.11-.08-.23-.2-.34-.15s.16.23.24.32l.28.3c.2.21.35.44.52.64a7.94,7.94,0,0,1,1,1.33,2.58,2.58,0,0,1-.39-.36c-.27-.24-.59-.42-.87-.66s-.31-.21-.45-.33L56.28,17a3.76,3.76,0,0,0-.35-.3c-.15-.1-.31-.19-.47-.28s-.14-.14-.24-.09c0,.2.22.26.36.35a1.75,1.75,0,0,1,.15.13l.2.16c.15.12.28.26.42.39l.31.25c.2.17.4.35.61.51a7.89,7.89,0,0,1,1.12,1.12c.06.07.16.1.18.2A13.18,13.18,0,0,1,57.06,19a1.06,1.06,0,0,0-.48-.15c0,.22.25.3.4.42a5,5,0,0,0,1.06.62c.2.08.38.2.58.28ZM18.75,17.25c.11-.18.27-.36.38-.52s.07-.13.11-.19.15-.1.17-.2-.21.07-.3.13l-.3.17c-.19.13-.36.29-.54.42-.57.39-1.07.85-1.64,1.24a8.11,8.11,0,0,1-1.86,1c-.1,0-.56.1-.54.24s.27.14.36.15a5.09,5.09,0,0,0,.79,0,10.46,10.46,0,0,0,1.36-.2,12.25,12.25,0,0,0,2.71-.83,6.7,6.7,0,0,0,1.74-1.09c.19-.17.36-.36.54-.52s.15-.1.17-.18a.92.92,0,0,0-.43.16c-.14.06-.27.15-.4.21l-.59.24a11,11,0,0,1-1.86.65,2.21,2.21,0,0,1,.46-.32,11,11,0,0,0,.87-.7c.15-.12.31-.23.45-.35a5.27,5.27,0,0,1,.5-.44c.07,0,.26-.09.25-.22s-.3,0-.38,0l-.22.11c-.19.11-.37.28-.57.43a12.33,12.33,0,0,1-1.7,1.26,1.54,1.54,0,0,1,.24-.32,4,4,0,0,0,.22-.36Zm0,3.92a9,9,0,0,0,2-.82,6.31,6.31,0,0,0,.88-.54c.13-.11.25-.23.38-.34a3.84,3.84,0,0,0,.39-.32c.05-.05.09-.13.14-.18.27-.27.59-.5.88-.75s.45-.38.67-.55.17-.1.25-.16.11-.11.19-.16l.43-.27s.2-.06.13-.17h0c-.38.18-.76.41-1.11.61l-1,.58c-.17.1-.32.22-.49.32l-.48.31c-.48.34-1,.68-1.46,1,.17-.18.33-.37.51-.53l.29-.25c.5-.42.81-1,1.35-1.36.1-.07.28-.1.3-.24-.16-.07-.33,0-.45.12a2.19,2.19,0,0,0-.37.28c-.22.2-.47.4-.68.6s-.46.4-.67.61a3.06,3.06,0,0,1-.67.61c.17-.27.32-.55.48-.82a1.49,1.49,0,0,0,.3-.62,3,3,0,0,0-.51.53,7.28,7.28,0,0,1-.57.48,10.43,10.43,0,0,0-1.67,1.56c-.16.21-.42.39-.46.68a2.42,2.42,0,0,0,1-.16Zm1.57,1.56a4.6,4.6,0,0,0,.72-.17,9,9,0,0,0,1.19-.47,10.57,10.57,0,0,0,2.24-1.36,5.73,5.73,0,0,0,1.29-1.39c.12-.2.23-.42.35-.61s.11-.12.11-.21-.24.16-.35.24-.2.2-.31.28l-.47.35a9.39,9.39,0,0,1-1.52,1,1.89,1.89,0,0,1,.33-.4,7.49,7.49,0,0,0,.5-.7c.07-.1.1-.21.17-.31s.17-.24.25-.37.19-.26.15-.36-.29.19-.37.28-.21.26-.32.39a13.87,13.87,0,0,1-1.08,1.33,1.4,1.4,0,0,1,.13-.36c0-.13.07-.25.1-.38s.14-.4.2-.57,0-.14.05-.2.11-.12.1-.22-.17.11-.24.18-.16.15-.23.23-.25.35-.38.51c-.42.49-.74,1-1.15,1.51a7,7,0,0,1-1.42,1.35c-.08.05-.48.21-.43.34s.29.07.37.06Zm4.22.76a7.52,7.52,0,0,0,.87-.41,1.68,1.68,0,0,0,.4-.32,5.38,5.38,0,0,0,.63-.67,4.32,4.32,0,0,0,.53-.9c0-.06.09-.24,0-.29s-.24.11-.29.16a4.5,4.5,0,0,1-.44.39,3.27,3.27,0,0,1-.38.3c-.09.05-.27.14-.31.24.08-.18.16-.37.25-.53l.16-.26a2.83,2.83,0,0,0,.36-.85c0-.06.2-.4.14-.48h0c-.14,0-.2.23-.28.32a3.17,3.17,0,0,0-.3.43c-.11.21-.26.4-.37.62a1.69,1.69,0,0,1-.37.62c0-.26.07-.54.11-.81a1.18,1.18,0,0,0,0-.62,1.73,1.73,0,0,0-.25.53,4,4,0,0,1-.32.49A5.78,5.78,0,0,0,23.8,23c-.06.21-.23.39-.15.68a1.73,1.73,0,0,0,.89-.19Zm32.8-2.13.31,0c.13,0,.22,0,.11-.13a2.87,2.87,0,0,1-.26-.38q-.26-.42-.5-.85c-.11-.2-.26-.37-.39-.57s-.28-.37-.42-.56a11,11,0,0,0-.85-1.07,7.37,7.37,0,0,0-1.13-.8h0c-.13.11.15.25.2.29l.27.22c.17.14.32.36.46.51a3.64,3.64,0,0,1,.57.75c.11.19.2.39.3.58l.15.28a1.71,1.71,0,0,1,.17.3L56,19.77c-.21-.17-.39-.38-.58-.57L55.17,19a1.39,1.39,0,0,1-.21-.18,1.4,1.4,0,0,0-.23-.18c-.14-.11-.26-.25-.38-.34s-.22-.12-.28-.07.11.19.19.25l.23.22a1.91,1.91,0,0,1,.36.33,4.44,4.44,0,0,0,.33.37c.14.17.27.35.43.51s.16.18.25.26l.2.16a.85.85,0,0,1,.14.1,2.74,2.74,0,0,1-.82-.14,3.62,3.62,0,0,1-.37-.15,1.58,1.58,0,0,0-.35-.15c-.05,0-.08.06-.08.08s.24.25.33.31a7.43,7.43,0,0,0,.62.41,3.63,3.63,0,0,0,.7.28,8.83,8.83,0,0,0,1.12.33ZM49,17.22s0,0,0,0c.2.27.5.45.72.72s.33.41.51.6a2.93,2.93,0,0,1,.38.44c-.22-.07-.45-.14-.66-.23s-.3-.22-.48-.18c.05.18.23.29.37.39s.31.2.47.29.34.16.51.25a2,2,0,0,0,.51.27c.11-.07.05-.2,0-.3a5,5,0,0,0-.21-.7,14.71,14.71,0,0,0-.84-1.33c0-.06-.08-.16-.17-.14s0,.27.09.38a2.3,2.3,0,0,1,.28.68c-.54-.35-.92-.84-1.47-1.18ZM33.91,19.27a.16.16,0,0,0,.1-.14c0-.15-.37-.29-.52-.32,0,.21.19.51.42.46ZM27,28.91a1.79,1.79,0,0,0,.32.18s.26.21.3.06-.25-.24-.31-.3a1.86,1.86,0,0,1-.35-.52.64.64,0,0,1,0-.24c0-.29.47-.5.32-.88-.08-.21-.34-.19-.4-.36a.94.94,0,0,1,0-.45c.08-.28.31-.42.51-.58s.18-.23.4-.21.22.17.37.14c0-.19-.2-.26-.32-.37.06-.08.1-.18.21-.2s.3.22.45.21,0-.19,0-.28-.16-.14-.16-.23.2-.25.28-.29a.43.43,0,0,1,.23-.07c.17,0,.18.28.27.45a.67.67,0,0,0,.38.37A1.24,1.24,0,0,0,29,24.19a.69.69,0,0,0-.66.08,3.54,3.54,0,0,0-.66.69,5.15,5.15,0,0,1-.81.78,1.22,1.22,0,0,0-.48.65,1.15,1.15,0,0,0,.14.67c.09.21,0,.39-.05.61A1.46,1.46,0,0,0,27,28.91Zm25.28-2.77a.93.93,0,0,0-.36-.33l-.08,0-.08,0a.86.86,0,0,0-.13-.07c-.2-.34-.27-.77-.6-1-.54-.32-.92.29-1.17.58a.94.94,0,0,0-.65-.51.48.48,0,0,0-.22,0c-.21.09-.37.41-.5.59s-.1.1-.11.16a.93.93,0,0,0-.26-.09H48l-.13-.06c-.16-.1-.28-.25-.42-.36s-.31-.24-.45-.37a13.29,13.29,0,0,0-1.87-1.4c-.24-.14-.51-.32-.77-.45a2.16,2.16,0,0,0-.27-.15.64.64,0,0,0-.18,0c-.31,0-.7.12-.75.32s.11.38.16.51,0,.19.08.25a1.93,1.93,0,0,0,.3.38c.11.12.21.26.31.38a3.37,3.37,0,0,0,1.6.88,5.71,5.71,0,0,1,.8.3,7.82,7.82,0,0,1,.68.42l.18.14a.79.79,0,0,0,.17.38,1.38,1.38,0,0,1,.32.53,1.69,1.69,0,0,1,0,.64,1,1,0,0,0,.06.72.75.75,0,0,0,.64.24c.16,0,.23.08.32.21a1.22,1.22,0,0,1,.17.42,2.12,2.12,0,0,1,0,.39c0,.09,0,.22.17.18s.15-.2.18-.31a3.61,3.61,0,0,0,.07-.4,1.83,1.83,0,0,0,0-.42,2,2,0,0,0-.07-.28h0c0-.07,0-.11.06-.15a1,1,0,0,0,.16-.15.74.74,0,0,0,.13-.22.63.63,0,0,0,.27.15c.12,0,.25,0,.36,0a1.19,1.19,0,0,1,.53,1c0,.12-.08.27,0,.39s.27-.11.31-.2a1.12,1.12,0,0,0,.13-.51,2.47,2.47,0,0,0-.13-.69c0-.11-.06-.21-.1-.31s-.11-.23-.07-.28,0-.35,0-.48c.19,0,.11.26.13.4.27,0,.5-.17.8-.2,0,0,.13.2.15.22a1.12,1.12,0,0,1,.11.28,1.25,1.25,0,0,1-.07.59c0,.19.1.1.18,0a1.23,1.23,0,0,0,.31-.94,1.27,1.27,0,0,0-.2-.76.64.64,0,0,0,0-.58Zm-5.85-.84a.45.45,0,0,1,.22,0,1.06,1.06,0,0,1,.07.21c-.11-.05-.24-.09-.29-.2Zm.33-.28s-.05,0,0,0,.05,0,0,0Zm.24.66a3.12,3.12,0,0,1-.16-.43.69.69,0,0,1,.26,0,1.1,1.1,0,0,1,.09.36.42.42,0,0,1-.2.07Zm.39-.15s0-.09,0-.12.12,0,.14.09-.09,0-.14,0Zm1.8,2.36a.37.37,0,0,1-.22.23c-.11,0-.23,0-.34.05a1,1,0,0,0-.21.1c-.06,0-.11.09-.18.07a.39.39,0,0,1-.2-.11A.44.44,0,0,1,48,28a1,1,0,0,1,0-.36,1.39,1.39,0,0,0,0-.48,1.19,1.19,0,0,0-.18-.42c-.09-.15-.21-.29-.29-.45a.43.43,0,0,1-.06-.25.51.51,0,0,1,.28-.35.48.48,0,0,1,.69.22,1.26,1.26,0,0,1,.12.48c0,.1-.13.09-.2.1a.63.63,0,0,0-.3.12c-.09.07-.05.11,0,.1a.83.83,0,0,1,.54,0s.16.17.11.21-.09,0-.13,0a.8.8,0,0,0-.33.06c-.07,0-.22.14,0,.13a1.73,1.73,0,0,1,.55,0,.68.68,0,0,1,.3.25.41.41,0,0,1,.07.41Zm1.39-.5c-.14.09-.34.08-.46.18s-.07.11-.14.16a.51.51,0,0,1-.38-.27c-.16-.28,0-.76-.28-1-.09,0-.16,0-.19.07s0,.1,0,.17a.62.62,0,0,1-.16.1l-.11-.15c-.14-.22-.1-.5-.18-.74a.68.68,0,0,0-.24-.35c.16-.06.23-.26.35-.38a.67.67,0,0,1,.29-.18.54.54,0,0,1,.36.22,1.19,1.19,0,0,1,.22.47c0,.06-.09.13-.13.2s-.1.14-.06.23.15-.16.31-.1.16.28.21.35-.23.08-.2.21.3,0,.43.06a.87.87,0,0,1,.31.71Zm1.5-.81c0,.12-.26.13-.33.25s0,.09-.06.15a.86.86,0,0,1-.64-.22c-.1-.13-.11-.39-.21-.57s-.11-.17-.16-.25-.1-.22-.22-.17,0,.11,0,.17-.13.13-.22.17a.74.74,0,0,1-.17-.28c0-.07-.14-.24-.13-.32s.14-.13.18-.19.31-.52.67-.42c.17,0,.27.22.35.42s-.2.08-.22.2.19.07.31.08a.57.57,0,0,1,.08.14c0,.09-.16.1-.15.24s.22-.05.36,0a1,1,0,0,1,.51.36.48.48,0,0,1,0,.27Zm-3.28-6.29c.08-.07.22-.13.22-.26a.08.08,0,0,0-.09,0,2.75,2.75,0,0,0-1,1.56,2.53,2.53,0,0,0,.12,1,2.05,2.05,0,0,1-.62-.87c0-.08,0-.19-.09-.17s-.07.34-.09.39a3.38,3.38,0,0,1-.21.32c-.06.12-.06.24-.14.32a3.32,3.32,0,0,1-.33-1.19c0-.07,0-.15,0-.2s-.07.12-.08.2-.06.16-.07.23a3.06,3.06,0,0,0,.27,1.18,1.94,1.94,0,0,1-.45-.32,3.19,3.19,0,0,1-.43-.36c-.06-.07-.1-.19-.22-.19a.68.68,0,0,0,.16.46,5.22,5.22,0,0,0,1,1l.12.08c.18.15.33.39.61.36.06-.1,0-.22,0-.35a2.26,2.26,0,0,1,.07-.95,3,3,0,0,1,.21.4,2.79,2.79,0,0,0,.79.76c.17.12.3.26.5.28,0-.28-.07-.59-.07-.91a2.42,2.42,0,0,1,.17-.87c0-.1.07-.2.1-.29a3.6,3.6,0,0,1,.2-.32s0-.09,0-.13.19-.27.25-.42.2-.29.14-.46c-.13,0-.2.17-.29.26s-.31.31-.46.49a3.79,3.79,0,0,0-.62,1.11,1.76,1.76,0,0,1-.09-1.16,1.9,1.9,0,0,1,.48-1ZM29.44,24.38c.09,0,.3-.09.38-.14a2.92,2.92,0,0,0,.78-.75,1.92,1.92,0,0,0,.21-.3c0-.08,0-.22.1-.25a9.5,9.5,0,0,1,.16,1.51c.15.21.38-.06.51-.18a3.29,3.29,0,0,0,.62-.68c.08-.13.21-.32.1-.46-.21,0-.27.2-.49.23,0-.34,0-.77-.06-1.1,0,0,0-.07,0-.11s0-.24-.1-.22a3,3,0,0,1-.12,1.14,3.11,3.11,0,0,1-.15-.4,1.71,1.71,0,0,0-.16-.39c-.08-.15-.12-.32-.19-.44s-.13-.13-.17-.2,0-.14-.08-.14-.06.17,0,.25.05.37.1.54a1.84,1.84,0,0,1-.31.42c-.06.07-.1.18-.2.19,0-.17,0-.34,0-.49,0-.32-.07-.66-.13-.95s-.16-.45-.21-.67c0-.06,0-.15-.06-.19h0s0,0,0,0a2.29,2.29,0,0,0,.09.65A5.18,5.18,0,0,1,30,22a2.54,2.54,0,0,1-.13,1.13,5.31,5.31,0,0,0-.41-1.27,4.18,4.18,0,0,0-.24-.44,1.93,1.93,0,0,0-.13-.21s0-.06-.08-.06h0c-.06,0-.08,0-.09.08l-.07.1A9.67,9.67,0,0,1,28,22.36c0-.42.16-.82.19-1.24s.07-.68.07-1a.61.61,0,0,0,0-.27s-.07,0-.13.13a6.87,6.87,0,0,0-.22.92c0,.24-.13.46-.17.7a1.7,1.7,0,0,1-.17.7c0-.27-.09-.54-.13-.81a1.49,1.49,0,0,0-.08-.46c0-.1-.08-.09-.11,0s-.07.35-.12.52-.05.33-.1.49a6.68,6.68,0,0,0-.2,1.31c0,.17,0,.34,0,.5s0,.13,0,.17.27-.08.33-.11c.27-.15.49-.37.75-.54a4.48,4.48,0,0,0,.81-.72,1.76,1.76,0,0,0,.35-.82l0,.12c0,.19.09.37.15.55a5.32,5.32,0,0,1,.19,1.21c0,.28-.08.44,0,.67Zm21.64-1.5c0-.3-.1-.59-.12-.88a5.06,5.06,0,0,1,0-.62c0-.1.11-.4,0-.43s-.07.15-.1.28-.08.22-.1.32c-.07.37-.08.73-.15,1.07a2.49,2.49,0,0,1-.16-.42,3.53,3.53,0,0,1-.15-.44c0-.12,0-.26,0-.38a.69.69,0,0,0-.09-.35c-.11.1-.05.29,0,.44a4.47,4.47,0,0,0,.28,1.5,2.53,2.53,0,0,1-.57-.6,1.93,1.93,0,0,1-.22-.48c0-.05,0-.24-.09-.22s-.07.15-.07.22a2.26,2.26,0,0,0,.24.72,4.33,4.33,0,0,0,.78,1.17c.16.17.32.39.55.42a.68.68,0,0,0,0-.34,8.51,8.51,0,0,0,0-1Zm3.56-.15c.19.05.88.4.93,0,0-.21-.22-.47-.33-.64a6.12,6.12,0,0,1-.34-.64,3.68,3.68,0,0,0-.24-.54c0-.07-.09-.13-.13-.19-.24-.4-.37-.77-.59-1.16a7.54,7.54,0,0,0-.47-.69,1.69,1.69,0,0,0-.61-.57h0v0c0,.09.13.17.2.27a6,6,0,0,1,.81,1.5c.09.27.15.54.24.79a6.63,6.63,0,0,1,.39.9h0a2.08,2.08,0,0,1-.24-.25l-.15-.17a2.25,2.25,0,0,1-.21-.29c-.08-.13-.16-.26-.25-.38s-.42-.49-.61-.72-.19-.25-.29-.37c-.31-.36-.61-.72-.94-1.05,0,0,0,0,0,0s.15.29.25.43.11.19.16.27.23.25.33.39.19.28.3.43.44.51.61.76.16.27.27.43a5.56,5.56,0,0,0,.59.82,2.64,2.64,0,0,1-.51-.18,1.26,1.26,0,0,1-.44-.25c-.18-.15-.32-.36-.51-.51,0,0,0,0,0,0h0s0,0,0,0c0,.19.37.57.51.75a2.7,2.7,0,0,0,1.36.79ZM53.17,24c.15-.06,0-.38,0-.48s-.13-.49-.19-.73a1.44,1.44,0,0,0-.11-.36.21.21,0,0,0,0-.1,3.32,3.32,0,0,1-.12-.32A7.85,7.85,0,0,0,52,20.1h0s0,0,0,0,.09.25.13.38.12.44.16.64.08.59.15.88c0,.11.05.23.07.35l0,.27a2.59,2.59,0,0,1,.07.33c-.09-.16-.2-.31-.28-.48l-.05-.08-.07-.09-.09-.1c-.17-.25-.29-.59-.47-.81a.94.94,0,0,1-.19-.22h0s0,0,0,0,.07.22.13.31a2.81,2.81,0,0,1,.13.3,3.57,3.57,0,0,0,.36.64,3.83,3.83,0,0,1,.34.53l.12.22a.52.52,0,0,1-.26-.09,1.75,1.75,0,0,1-.24-.12,2.62,2.62,0,0,1-.32-.3,3.17,3.17,0,0,1-.31-.34s0-.12-.11-.14h0s0,0,0,0,.09.27.16.38a5,5,0,0,0,.39.5,3.36,3.36,0,0,0,.75.62,1.53,1.53,0,0,0,.34.18.69.69,0,0,0,.36.06Zm-10,.14a3,3,0,0,0-.42-.75c-.08-.11-.18-.24-.33-.25-.13.14.07.28.11.42a3.79,3.79,0,0,1,.09.37l-.39-.22a1.91,1.91,0,0,0-.42-.2c.09.18.3.26.45.38a1.32,1.32,0,0,1,.4.43c-.14.06-.47,0-.5.09s.09.14.17.18a2,2,0,0,0,.54.19c.22.06.42.15.39-.17a1.83,1.83,0,0,0-.12-.46Zm-12,2.73,0,0a2.32,2.32,0,0,1,.29-.12,5.05,5.05,0,0,1,.6-.22l.7-.16c.58-.15,1.17-.25,1.69-.44a5.37,5.37,0,0,0,1-.44,3.42,3.42,0,0,0,.39-.31,1.38,1.38,0,0,0,.56-.88,1.59,1.59,0,0,0,0-.62c-.1-.25-.71-.11-1-.18l-.17-.06a.86.86,0,0,0-.3.17,2.32,2.32,0,0,0-.19.36c-.06.12-.11.25-.17.38-.18.4-.27.86-.61,1a.85.85,0,0,1-.73-.06c-.18-.11-.27-.31-.42-.47-.2.13-.39.3-.61.43l-.35.17c-.26.15-.51.33-.76.49l-.12.08a.4.4,0,0,0-.48-.12.79.79,0,0,0-.35.23,1.86,1.86,0,0,0-.08-.45.66.66,0,0,0-.21-.24.64.64,0,0,0-.67.13c-.17.14-.2.38-.37.59a1.33,1.33,0,0,1-.25.23c-.26.17-.53.21-.69.36a.76.76,0,0,0-.21.42.79.79,0,0,0,.3.77c0,.27-.15.44-.17.69a1.36,1.36,0,0,0,.67,1.28c.07.05.18.14.27.08s-.13-.2-.2-.28a1.18,1.18,0,0,1-.29-.52,1,1,0,0,1,.12-.63c.06-.12.18-.22.21-.34a.46.46,0,0,0-.4-.52c-.32-.29-.09-.63.16-.77a1.26,1.26,0,0,1,.81-.2c0-.13-.13-.14-.17-.23s.07-.16.15-.17.13.12.24.13c.06-.16-.12-.26-.15-.39s.2-.37.4-.35.27.36.3.45a1.87,1.87,0,0,0,.09.29h0c0,.09,0,.18,0,.28a.44.44,0,0,1,0,.17c0-.07-.11-.19-.17-.19s-.07.11-.09.17a.47.47,0,0,0-.65.43c0,.1,0,.19,0,.26a.71.71,0,0,1-.13.36c0,.06-.18.1-.21.14a.18.18,0,0,0,0,.15c0,.11.32.05.42,0a.55.55,0,0,0,.28-.53c0-.12-.06-.42.11-.45a.19.19,0,0,1,.2.1,1.47,1.47,0,0,1-.06.2.91.91,0,0,1-.12.16.67.67,0,0,0-.13.3.9.9,0,0,0,.38.84,1.49,1.49,0,0,0,.11.53,2.51,2.51,0,0,0,.24.55c.07.11.46.75.62.6s-.08-.29-.12-.37a2,2,0,0,1-.13-.32,1.56,1.56,0,0,1-.06-.35.72.72,0,0,1,0-.37c.08-.14.27-.11.39-.14a.58.58,0,0,0,.36-.28,1.15,1.15,0,0,0,.1-.6,1.18,1.18,0,0,0-.15-.37l-.06-.12c-.1-.21,0-.47.08-.68v-.08Zm1.22-.78c0,.06-.13.07-.21.09s.11-.13.21-.09ZM30.8,28.51h0c-.12,0-.22-.07-.33-.11a.91.91,0,0,0-.37-.06c-.13,0-.23,0-.33-.09a.37.37,0,0,1,0-.46,1.07,1.07,0,0,1,.38-.24c.05,0,.3-.06.22-.18s-.3.06-.33,0,.18-.26.23-.29.28,0,.24-.14-.27,0-.33-.17.18-.51.34-.58a.26.26,0,0,1,.36.16,1.11,1.11,0,0,1-.05.82.81.81,0,0,0-.07.74,1.37,1.37,0,0,1,.19.44.18.18,0,0,1-.14.2Zm1.33-2.86a.52.52,0,0,1-.07.16h-.2a.35.35,0,0,1,.26-.16Zm-.65.43a1.54,1.54,0,0,1,.45,0c0,.09-.1.18-.16.24a1,1,0,0,1-.32,0,.37.37,0,0,1,0-.17Zm0,.43a.21.21,0,0,1-.17.09c0-.08.1-.16.17-.09Zm-.17-.38a.15.15,0,0,1,0,.12s-.11,0-.14,0,.12-.12.19-.1Zm12-.61c0-.07-.09-.19-.19-.21a1.4,1.4,0,0,0,.23.5,3.87,3.87,0,0,1,.31.71l-.18,0-.32,0c-.07-.16-.15-.32-.24-.49a5.31,5.31,0,0,0-.4-.65c-.07-.1-.14-.3-.24-.3s0,0,0,0c.15.41.31.9.46,1.37h-.23c-.08-.17-.16-.33-.25-.48s0-.18-.15-.17.06.21.1.31.08.22.12.33l-.38,0h0c-.1-.36-.19-.7-.27-1a.45.45,0,0,0,.25-.31,1.41,1.41,0,0,0-.38-1.54c-.07.12,0,.3,0,.46a1.59,1.59,0,0,1,0,.47c-.19-.2-.31-.57-.51-.81,0-.05-.13-.09-.19-.16s-.14-.24-.25-.18.23.34.32.5a6.93,6.93,0,0,1,.42,1c-.15,0-.34-.16-.51-.06a.34.34,0,0,0,.13.22,4.64,4.64,0,0,0,.6.42,6.93,6.93,0,0,0,.16,1h-.21v0c0-.09,0-.22-.13-.27a.65.65,0,0,0,0,.3h-.23c0-.23-.07-.46-.11-.7l0-.25s0-.27-.11-.21a.06.06,0,0,0,0,0,5.85,5.85,0,0,0,0,1s0,.09,0,.14h-.52a.35.35,0,0,0-.11-.23.39.39,0,0,0,0,.22l-.59,0c0-.35,0-.7,0-1,.19,0,.34.41.53.4s.17-.14.23-.23a2,2,0,0,0,.36-1.16c0-.18,0-.58-.18-.55s-.09.24-.12.36a1.23,1.23,0,0,1-.28.62c-.07-.28-.17-.56-.27-.84a2.21,2.21,0,0,0-.33-.77h0s0,0,0,0A10.55,10.55,0,0,1,39.89,25c-.13-.1-.27-.17-.39-.28s0-.24,0-.36,0-.44-.14-.45-.17.29-.21.43a1.58,1.58,0,0,1-.21.44,7.43,7.43,0,0,1-.17-.91s0-.16,0-.16a.6.6,0,0,0-.06.38,5.94,5.94,0,0,1,0,.74c-.15-.05-.22-.24-.4-.22a1,1,0,0,0,.08.4,3.72,3.72,0,0,0,.37.69c.06.1.14.28.27.28s.19-.24.24-.37.1-.32.16-.45a1.29,1.29,0,0,1,.21.25.16.16,0,0,0-.11,0,4.34,4.34,0,0,0-.12,1h-.49a.32.32,0,0,0-.07-.21.35.35,0,0,0-.06.22h-.06l-.25,0a4.33,4.33,0,0,0,0-.85c0-.09,0-.26-.09-.24a0,0,0,0,0,0,0c-.1.33-.11.72-.19,1.07h-.55l0-.08c.05-.14.08-.28.13-.42s.15-.24.12-.38-.15.12-.2.2-.09.17-.14.25a2.89,2.89,0,0,0-.25.45h-.19l-.25,0c.13-.24.24-.48.33-.7s.48-.44.69-.69a1.44,1.44,0,0,0,.31-.73c0-.14.09-.68,0-.69S38,23.87,38,24a1.56,1.56,0,0,1-.32.57c-.07.08-.12.19-.22.21,0-.25,0-.67,0-1,0-.13.09-.38,0-.37s-.1.19-.14.35-.08.21-.1.31-.06.4-.12.58a1.28,1.28,0,0,1-.17-.51c0-.09,0-.27-.07-.28s-.16.42-.17.53a1.74,1.74,0,0,0,0,.27,2.48,2.48,0,0,0,.3.87c0,.08.07.13.06.22a2.14,2.14,0,0,1-.2.25c-.06.09-.15.19-.2.27s-.07.17-.12.24v0h-.79a9.85,9.85,0,0,1,.68-1c.11-.13.28-.26.28-.46-.1,0-.18.09-.24.15a2.79,2.79,0,0,0-.2.22c-.12.15-.29.26-.43.4a6.1,6.1,0,0,0-.46.72l-.21,0c-.07-.23.12-.55.08-.76-.17.06-.29.26-.42.44a6.17,6.17,0,0,0-.38.49h0a10.53,10.53,0,0,1-1.49.09c-.4,0-.79.08-1.18.14-.12,0-.38,0-.45.12a.49.49,0,0,0,0,.33.5.5,0,0,0,.07.18.3.3,0,0,0,.32.12l.81-.15c.19,0,.36,0,.54,0,1.09-.1,2.17-.27,3.27-.34.81,0,1.62,0,2.42-.06h.34c.91,0,1.86-.09,2.78,0s2.06.26,3.09.28a4.92,4.92,0,0,1,.7.08c.22,0,.59.11.81.13a2.06,2.06,0,0,0,.52.07,1,1,0,0,1,.22,0c.13,0,.23,0,.27-.15a1,1,0,0,0,0-.34c0-.09-.08-.13-.15-.16h0a1.4,1.4,0,0,0-.34-.1l-.4,0c-.2,0-.54-.08-.75-.12l-.14,0a1.14,1.14,0,0,0-.09-.39,6.47,6.47,0,0,0-.44-.74c-.05-.08-.08-.21-.19-.22-.09.2.11.37.14.59a1,1,0,0,1,0,.32,5.79,5.79,0,0,0-.76-1h0s0,0,0,0a4.89,4.89,0,0,1,.33.65,2,2,0,0,1,.19.53c-.11,0-.08-.15-.21-.14a.45.45,0,0,0,.06.25h-.18c0-.09-.06-.19-.1-.29s-.1-.15-.15-.24c-.17-.32-.32-.64-.5-.91,0,0-.09-.21-.15-.2s0,.25,0,.32c.08.24.21.49.28.69s.09.33.15.5l0,.08-.23,0c-.17-.35-.36-.7-.55-1Zm-16,10.63L26,31.6l.12,4.87-.53.15L23.14,32.4l1.29,4.54-.52.15-1.37-4.81.9-.26,2.18,3.82-.1-4.41.89-.25L27.77,36Zm1.38-2.34,1.3-.3-1.24-2.4ZM28,35.94l.2-5.18.69-.16,2.47,4.56-.55.13L30.16,34l-1.55.36,0,1.49Zm4.14-1.32.72-.09a1.66,1.66,0,0,0,.53-.14.62.62,0,0,0,.27-.27,1.73,1.73,0,0,0,.17-.67,5.64,5.64,0,0,0-.06-1.08,3.41,3.41,0,0,0-.45-1.57,1,1,0,0,0-1-.28l-.7.09Zm-.49.55-.63-5L32.45,30a1.43,1.43,0,0,1,1.32.4,3.09,3.09,0,0,1,.62,1.7,5.75,5.75,0,0,1,0,1.4,2,2,0,0,1-.32.92,1.15,1.15,0,0,1-.41.37A2.33,2.33,0,0,1,33,35Zm3.57-.42-.38-5,2.48-.19,0,.52-1.93.15.12,1.61,1.8-.14,0,.5-1.8.14.14,1.84L37.7,34l0,.52Zm4.27-.2.13-5h.57l-.13,5Zm1.19,0,.38-5,.74.06L43.23,34l.27-4.28.54,0-.38,5L43,34.69l-1.42-4.54-.29,4.41ZM46.44,30l.92.16-.59,3.32a1.51,1.51,0,0,0,0,.8.56.56,0,0,0,.46.29.55.55,0,0,0,.53-.12,1.56,1.56,0,0,0,.28-.76l.59-3.31.9.16-.61,3.4a3.43,3.43,0,0,1-.19.71,1.1,1.1,0,0,1-.26.37,1.22,1.22,0,0,1-.59.29,2.13,2.13,0,0,1-.8,0,1.62,1.62,0,0,1-1.13-.58,1.88,1.88,0,0,1-.12-1.34Zm3.06,3.85.91.21-.07.31a1.2,1.2,0,0,0,0,.64.45.45,0,0,0,.35.25.63.63,0,0,0,.47,0,.59.59,0,0,0,.25-.4.67.67,0,0,0,0-.4,2,2,0,0,0-.36-.51l-.39-.44a2.86,2.86,0,0,1-.61-.87,1.33,1.33,0,0,1,0-.72,1.3,1.3,0,0,1,.59-.88,1.43,1.43,0,0,1,1.08-.12,1.41,1.41,0,0,1,1,.61,1.49,1.49,0,0,1,.12,1.15l0,.11,0,.06-.86-.2,0-.13a1,1,0,0,0,0-.6.52.52,0,0,0-.39-.27.47.47,0,0,0-.37,0,.51.51,0,0,0-.21.33q-.07.31.4.81h0l.42.45a2.44,2.44,0,0,1,.57.84,1.57,1.57,0,0,1,0,.85,1.37,1.37,0,0,1-.62.94,1.55,1.55,0,0,1-1.17.11,1.47,1.47,0,0,1-1-.63,1.68,1.68,0,0,1-.09-1.24c0-.05,0-.14.08-.27ZM54,34.7l.75.25.29-2.11Zm-1.91,1.48L54.8,31.8l1.18.4-.53,5.1-1-.32.17-1.27-1-.34L53,36.48Z" transform="translate(0 -0.06)"/></g></g></svg>