<?xml version="1.0" encoding="utf-8"?>
<!-- Generator: Adobe Illustrator 21.1.0, SVG Export Plug-In . SVG Version: 6.00 Build 0)  -->
<svg version="1.1" id="Camada_1" xmlns="http://www.w3.org/2000/svg" xmlns:xlink="http://www.w3.org/1999/xlink" x="0px" y="0px"
	 viewBox="0 0 45 45" style="enable-background:new 0 0 45 45;" xml:space="preserve">
<style type="text/css">
	.st0{fill:#FFFFFF;}
</style>
<title>Combined Shape</title>
<desc>Created with Sketch.</desc>
<g id="Page-1">
	<g id="_x30_0-menu2" transform="translate(-485.000000, -120.000000)">
		<g id="Menu---Dropdown-Copy">
			<path id="Combined-Shape" class="st0" d="M521.8,135.9L521.8,135.9c-0.1-0.7-0.3-1.7-0.8-3c-0.7-1.7-2.2-4.1-5.4-5.6v-1.1h1.3
				c0.8,0,1.5-0.7,1.5-1.5v-3.1c0-0.8-0.7-1.5-1.5-1.5h-18.9c-0.8,0-1.5,0.7-1.5,1.5v3.1c0,0.8,0.7,1.5,1.5,1.5h1.3v1.1
				c-3.2,1.5-4.6,3.9-5.4,5.6c-0.5,1.2-0.7,2.3-0.7,3h0l0,0.4c0,0.1,0,0.2,0,0.2l0,0.3l0,23.4h0v1.1c0,2,1.7,3.7,3.7,3.7h21.3
				c2,0,3.7-1.7,3.7-3.7v-1.7h0L521.8,135.9z M518.1,163.7h-21.3c-1.3,0-2.4-1.1-2.4-2.4v-1.1h26.1v1.1
				C520.5,162.6,519.5,163.7,518.1,163.7z M495.1,133.4c0.9-2.3,2.6-4,5.1-5.1l0.4-0.2v-1.9h13.8v1.9l0.4,0.2
				c2.4,1.1,4.1,2.8,5.1,5.1c0.4,1,0.6,2,0.7,2.5h-26C494.6,135.3,494.7,134.4,495.1,133.4z M498.1,124.9c-0.1,0-0.3-0.1-0.3-0.3
				v-3.1c0-0.1,0.1-0.3,0.3-0.3h18.9c0.1,0,0.3,0.1,0.3,0.3v3.1c0,0.1-0.1,0.3-0.3,0.3H498.1z M494.5,159l0-21.8h26.1l0,21.8H494.5z
				 M512.6,141.4c-0.2-0.4-0.7-0.7-1.1-0.7h-5.5c-0.5,0-1,0.3-1.2,0.8l-2.4,6.1c-0.2,0.4-0.1,0.8,0.1,1.2c0.2,0.3,0.6,0.6,1,0.6h0.5
				l-1.7,4.4c-0.2,0.6,0,1.2,0.5,1.5c0.2,0.1,0.4,0.2,0.7,0.2c0.3,0,0.7-0.1,0.9-0.4l7.7-7.9c0.4-0.4,0.5-0.9,0.3-1.4
				s-0.7-0.8-1.2-0.8h-0.6l1.8-2.3C512.7,142.4,512.8,141.9,512.6,141.4z M507.9,146.3h3.3l-7.7,7.9l2.4-6.1h-2.4l2.4-6.1h5.5
				L507.9,146.3z"/>
		</g>
	</g>
</g>
</svg>
