<?xml version="1.0" encoding="UTF-8" standalone="no"?>
<!DOCTYPE svg PUBLIC "-//W3C//DTD SVG 1.1//EN" "http://www.w3.org/Graphics/SVG/1.1/DTD/svg11.dtd">
<svg width="25" height="25" viewBox="0 0 28 28" version="1.1" xmlns="http://www.w3.org/2000/svg" xmlns:xlink="http://www.w3.org/1999/xlink" xml:space="preserve" style="fill-rule:evenodd;clip-rule:evenodd;stroke-linejoin:round;stroke-miterlimit:1.41421;">
    <g id="US">
        <path id="Mask" d="M14,28C21.732,28 28,21.732 28,14C28,6.268 21.732,0 14,0C6.268,0 0,6.268 0,14C0,21.732 6.268,28 14,28Z" style="fill:white;"/>
        <clipPath id="_clip1">
            <path id="Mask1" d="M14,28C21.732,28 28,21.732 28,14C28,6.268 21.732,0 14,0C6.268,0 0,6.268 0,14C0,21.732 6.268,28 14,28Z"/>
        </clipPath>
        <g clip-path="url(#_clip1)">
            <g transform="matrix(1,0,0,1,-6,0)">
                <path id="Mask2" d="M47,2C47,0.896 46.104,0 45,0L2,0C0.896,0 0,0.896 0,2L0,32C0,33.104 0.896,34 2,34L45,34C46.104,34 47,33.104 47,32L47,2Z" style="fill:white;"/>
                <path id="Rectangle.-511" d="M0,0L47,0L47,2.267L0,2.267L0,0ZM0,4.533L47,4.533L47,6.8L0,6.8L0,4.533ZM0,9.067L47,9.067L47,11.333L0,11.333L0,9.067ZM0,13.6L47,13.6L47,15.867L0,15.867L0,13.6ZM0,18.133L47,18.133L47,20.4L0,20.4L0,18.133ZM0,22.667L47,22.667L47,24.933L0,24.933L0,22.667ZM0,27.2L47,27.2L47,29.467L0,29.467L0,27.2ZM0,31.733L47,31.733L47,34L0,34L0,31.733Z" style="fill:rgb(208,47,68);"/>
                <rect id="Rectangle.-5111" x="0" y="0" width="20.143" height="15.867" style="fill:rgb(70,70,127);"/>
                <g id="Oval.-43">
                    <path id="path.-6" d="M3.357,4.533C3.975,4.533 4.476,4.026 4.476,3.4C4.476,2.774 3.975,2.267 3.357,2.267C2.739,2.267 2.238,2.774 2.238,3.4C2.238,4.026 2.739,4.533 3.357,4.533ZM7.833,4.533C8.451,4.533 8.952,4.026 8.952,3.4C8.952,2.774 8.451,2.267 7.833,2.267C7.215,2.267 6.714,2.774 6.714,3.4C6.714,4.026 7.215,4.533 7.833,4.533ZM12.31,4.533C12.928,4.533 13.429,4.026 13.429,3.4C13.429,2.774 12.928,2.267 12.31,2.267C11.691,2.267 11.19,2.774 11.19,3.4C11.19,4.026 11.691,4.533 12.31,4.533ZM16.786,4.533C17.404,4.533 17.905,4.026 17.905,3.4C17.905,2.774 17.404,2.267 16.786,2.267C16.168,2.267 15.667,2.774 15.667,3.4C15.667,4.026 16.168,4.533 16.786,4.533ZM5.595,6.8C6.213,6.8 6.714,6.293 6.714,5.667C6.714,5.041 6.213,4.533 5.595,4.533C4.977,4.533 4.476,5.041 4.476,5.667C4.476,6.293 4.977,6.8 5.595,6.8ZM10.071,6.8C10.689,6.8 11.19,6.293 11.19,5.667C11.19,5.041 10.689,4.533 10.071,4.533C9.453,4.533 8.952,5.041 8.952,5.667C8.952,6.293 9.453,6.8 10.071,6.8ZM14.548,6.8C15.166,6.8 15.667,6.293 15.667,5.667C15.667,5.041 15.166,4.533 14.548,4.533C13.93,4.533 13.429,5.041 13.429,5.667C13.429,6.293 13.93,6.8 14.548,6.8ZM16.786,9.067C17.404,9.067 17.905,8.559 17.905,7.933C17.905,7.307 17.404,6.8 16.786,6.8C16.168,6.8 15.667,7.307 15.667,7.933C15.667,8.559 16.168,9.067 16.786,9.067ZM12.31,9.067C12.928,9.067 13.429,8.559 13.429,7.933C13.429,7.307 12.928,6.8 12.31,6.8C11.691,6.8 11.19,7.307 11.19,7.933C11.19,8.559 11.691,9.067 12.31,9.067ZM7.833,9.067C8.451,9.067 8.952,8.559 8.952,7.933C8.952,7.307 8.451,6.8 7.833,6.8C7.215,6.8 6.714,7.307 6.714,7.933C6.714,8.559 7.215,9.067 7.833,9.067ZM3.357,9.067C3.975,9.067 4.476,8.559 4.476,7.933C4.476,7.307 3.975,6.8 3.357,6.8C2.739,6.8 2.238,7.307 2.238,7.933C2.238,8.559 2.739,9.067 3.357,9.067ZM5.595,11.333C6.213,11.333 6.714,10.826 6.714,10.2C6.714,9.574 6.213,9.067 5.595,9.067C4.977,9.067 4.476,9.574 4.476,10.2C4.476,10.826 4.977,11.333 5.595,11.333ZM10.071,11.333C10.689,11.333 11.19,10.826 11.19,10.2C11.19,9.574 10.689,9.067 10.071,9.067C9.453,9.067 8.952,9.574 8.952,10.2C8.952,10.826 9.453,11.333 10.071,11.333ZM14.548,11.333C15.166,11.333 15.667,10.826 15.667,10.2C15.667,9.574 15.166,9.067 14.548,9.067C13.93,9.067 13.429,9.574 13.429,10.2C13.429,10.826 13.93,11.333 14.548,11.333ZM16.786,13.6C17.404,13.6 17.905,13.093 17.905,12.467C17.905,11.841 17.404,11.333 16.786,11.333C16.168,11.333 15.667,11.841 15.667,12.467C15.667,13.093 16.168,13.6 16.786,13.6ZM12.31,13.6C12.928,13.6 13.429,13.093 13.429,12.467C13.429,11.841 12.928,11.333 12.31,11.333C11.691,11.333 11.19,11.841 11.19,12.467C11.19,13.093 11.691,13.6 12.31,13.6ZM7.833,13.6C8.451,13.6 8.952,13.093 8.952,12.467C8.952,11.841 8.451,11.333 7.833,11.333C7.215,11.333 6.714,11.841 6.714,12.467C6.714,13.093 7.215,13.6 7.833,13.6ZM3.357,13.6C3.975,13.6 4.476,13.093 4.476,12.467C4.476,11.841 3.975,11.333 3.357,11.333C2.739,11.333 2.238,11.841 2.238,12.467C2.238,13.093 2.739,13.6 3.357,13.6Z"/>
                    <path id="path.-61" d="M3.357,4.533C3.975,4.533 4.476,4.026 4.476,3.4C4.476,2.774 3.975,2.267 3.357,2.267C2.739,2.267 2.238,2.774 2.238,3.4C2.238,4.026 2.739,4.533 3.357,4.533ZM7.833,4.533C8.451,4.533 8.952,4.026 8.952,3.4C8.952,2.774 8.451,2.267 7.833,2.267C7.215,2.267 6.714,2.774 6.714,3.4C6.714,4.026 7.215,4.533 7.833,4.533ZM12.31,4.533C12.928,4.533 13.429,4.026 13.429,3.4C13.429,2.774 12.928,2.267 12.31,2.267C11.691,2.267 11.19,2.774 11.19,3.4C11.19,4.026 11.691,4.533 12.31,4.533ZM16.786,4.533C17.404,4.533 17.905,4.026 17.905,3.4C17.905,2.774 17.404,2.267 16.786,2.267C16.168,2.267 15.667,2.774 15.667,3.4C15.667,4.026 16.168,4.533 16.786,4.533ZM5.595,6.8C6.213,6.8 6.714,6.293 6.714,5.667C6.714,5.041 6.213,4.533 5.595,4.533C4.977,4.533 4.476,5.041 4.476,5.667C4.476,6.293 4.977,6.8 5.595,6.8ZM10.071,6.8C10.689,6.8 11.19,6.293 11.19,5.667C11.19,5.041 10.689,4.533 10.071,4.533C9.453,4.533 8.952,5.041 8.952,5.667C8.952,6.293 9.453,6.8 10.071,6.8ZM14.548,6.8C15.166,6.8 15.667,6.293 15.667,5.667C15.667,5.041 15.166,4.533 14.548,4.533C13.93,4.533 13.429,5.041 13.429,5.667C13.429,6.293 13.93,6.8 14.548,6.8ZM16.786,9.067C17.404,9.067 17.905,8.559 17.905,7.933C17.905,7.307 17.404,6.8 16.786,6.8C16.168,6.8 15.667,7.307 15.667,7.933C15.667,8.559 16.168,9.067 16.786,9.067ZM12.31,9.067C12.928,9.067 13.429,8.559 13.429,7.933C13.429,7.307 12.928,6.8 12.31,6.8C11.691,6.8 11.19,7.307 11.19,7.933C11.19,8.559 11.691,9.067 12.31,9.067ZM7.833,9.067C8.451,9.067 8.952,8.559 8.952,7.933C8.952,7.307 8.451,6.8 7.833,6.8C7.215,6.8 6.714,7.307 6.714,7.933C6.714,8.559 7.215,9.067 7.833,9.067ZM3.357,9.067C3.975,9.067 4.476,8.559 4.476,7.933C4.476,7.307 3.975,6.8 3.357,6.8C2.739,6.8 2.238,7.307 2.238,7.933C2.238,8.559 2.739,9.067 3.357,9.067ZM5.595,11.333C6.213,11.333 6.714,10.826 6.714,10.2C6.714,9.574 6.213,9.067 5.595,9.067C4.977,9.067 4.476,9.574 4.476,10.2C4.476,10.826 4.977,11.333 5.595,11.333ZM10.071,11.333C10.689,11.333 11.19,10.826 11.19,10.2C11.19,9.574 10.689,9.067 10.071,9.067C9.453,9.067 8.952,9.574 8.952,10.2C8.952,10.826 9.453,11.333 10.071,11.333ZM14.548,11.333C15.166,11.333 15.667,10.826 15.667,10.2C15.667,9.574 15.166,9.067 14.548,9.067C13.93,9.067 13.429,9.574 13.429,10.2C13.429,10.826 13.93,11.333 14.548,11.333ZM16.786,13.6C17.404,13.6 17.905,13.093 17.905,12.467C17.905,11.841 17.404,11.333 16.786,11.333C16.168,11.333 15.667,11.841 15.667,12.467C15.667,13.093 16.168,13.6 16.786,13.6ZM12.31,13.6C12.928,13.6 13.429,13.093 13.429,12.467C13.429,11.841 12.928,11.333 12.31,11.333C11.691,11.333 11.19,11.841 11.19,12.467C11.19,13.093 11.691,13.6 12.31,13.6ZM7.833,13.6C8.451,13.6 8.952,13.093 8.952,12.467C8.952,11.841 8.451,11.333 7.833,11.333C7.215,11.333 6.714,11.841 6.714,12.467C6.714,13.093 7.215,13.6 7.833,13.6ZM3.357,13.6C3.975,13.6 4.476,13.093 4.476,12.467C4.476,11.841 3.975,11.333 3.357,11.333C2.739,11.333 2.238,11.841 2.238,12.467C2.238,13.093 2.739,13.6 3.357,13.6Z" style="fill:url(#_Linear2);"/>
                </g>
            </g>
        </g>
    </g>
    <defs>
        <linearGradient id="_Linear2" x1="0" y1="0" x2="1" y2="0" gradientUnits="userSpaceOnUse" gradientTransform="matrix(6.93967e-16,11.3333,-11.3333,6.93967e-16,10.0714,2.26667)"><stop offset="0" style="stop-color:white;stop-opacity:1"/><stop offset="1" style="stop-color:rgb(240,240,240);stop-opacity:1"/></linearGradient>
    </defs>
</svg>
